<svg width="184" height="35" viewBox="0 0 184 35" fill="none" xmlns="http://www.w3.org/2000/svg">
<g clip-path="url(#clip0_702_132)">
<path fill-rule="evenodd" clip-rule="evenodd" d="M12.191 10.9181C12.6845 10.4584 13.8044 9.42033 16.3218 7.092C15.2046 6.06638 14.1646 5.05033 13.1806 3.9375C11.603 5.18907 10.4537 6.11974 9.22168 7.17443C10.0048 8.33694 10.888 9.46265 12.191 10.9181Z" fill="#112E39"/>
<path fill-rule="evenodd" clip-rule="evenodd" d="M8.07129 17.3264C9.25 18.7241 10.4585 20.0106 12.1576 21.6637C13.2035 20.5394 13.9512 19.7935 16.4242 17.3323C13.9571 14.8652 13.1593 14.0615 12.1252 12.9531C10.2698 14.7854 9.08771 16.094 8.07129 17.3264Z" fill="#112E39"/>
<path fill-rule="evenodd" clip-rule="evenodd" d="M22.4818 23.7109C21.7105 24.4436 21.1405 24.9665 18.3926 27.4483C19.6188 28.6171 20.5053 29.5452 21.2527 30.4696C22.9043 29.2037 24.0006 28.3187 25.1679 27.3335C24.4882 26.2122 23.6668 25.1056 22.4818 23.7109Z" fill="#112E39"/>
<path fill-rule="evenodd" clip-rule="evenodd" d="M26.5948 17.3221C25.599 16.0882 24.4406 14.7781 22.6175 12.9609C21.8289 13.8353 20.7208 15.0173 18.4307 17.325C20.1651 19.0741 21.3736 20.315 22.5733 21.6509C24.2278 20.0386 25.4216 18.7521 26.5948 17.3221Z" fill="#112E39"/>
<path fill-rule="evenodd" clip-rule="evenodd" d="M22.084 31.6227C22.5006 32.2457 22.8259 32.8176 23.0147 33.3376C24.2942 32.8768 25.5057 32.2829 26.6226 31.5473C26.6226 30.6725 26.3565 29.7301 25.8424 28.625C24.7491 29.5468 23.641 30.4274 22.084 31.6227Z" fill="#112E39"/>
<path fill-rule="evenodd" clip-rule="evenodd" d="M17.3666 8.058V8.05469C14.7369 10.4923 13.6347 11.5117 13.1475 11.9621C14.1816 13.0735 14.9408 13.8371 17.4288 16.3251C19.7601 13.9688 20.824 12.8328 21.6038 11.9636C20.4571 10.8647 19.5651 10.0522 17.3666 8.058Z" fill="#112E39"/>
<path fill-rule="evenodd" clip-rule="evenodd" d="M17.4266 18.3359C14.915 20.8357 14.2118 21.539 13.1895 22.6397C14.0937 23.4861 14.9978 24.3251 15.9138 25.1582C16.3922 25.5958 16.8768 26.0359 17.3556 26.4764C20.2481 23.8585 20.7416 23.411 21.5453 22.6441C20.3578 21.32 19.1816 20.103 17.4266 18.3359Z" fill="#112E39"/>
<path fill-rule="evenodd" clip-rule="evenodd" d="M30.0842 22.6089C29.4192 21.2749 28.6302 20.016 27.4839 18.4766C26.3317 19.8566 25.1202 21.1476 23.501 22.7197C24.7066 24.1262 25.5604 25.2519 26.2636 26.3864C27.7735 25.0509 28.9316 23.8925 30.0842 22.6089Z" fill="#112E39"/>
<path fill-rule="evenodd" clip-rule="evenodd" d="M3.59066 10.6018C4.69282 9.38917 5.89507 8.2307 7.39026 6.89082C6.76686 5.79454 6.35029 4.82266 6.12875 3.91406C4.79622 5.02358 3.6407 6.33219 2.69531 7.78616C2.83147 8.51149 3.06478 9.41125 3.59066 10.6018Z" fill="#112E39"/>
<path fill-rule="evenodd" clip-rule="evenodd" d="M30.6988 24.0547C29.5937 25.2514 28.4235 26.3771 26.9551 27.664C27.4869 28.7379 27.8148 29.6921 27.9509 30.5815C29.2537 29.5342 30.4033 28.3066 31.3546 26.931C31.3016 26.0253 31.0826 25.0917 30.6988 24.0547Z" fill="#112E39"/>
<path fill-rule="evenodd" clip-rule="evenodd" d="M4.27832 11.976C4.85166 13.0189 5.63734 14.2775 7.15019 16.1995C8.15778 14.991 9.35157 13.6854 11.1688 11.8947C9.8745 10.447 8.94677 9.28449 8.14894 8.11719C6.60666 9.50124 5.41581 10.6906 4.27832 11.976Z" fill="#112E39"/>
<path fill-rule="evenodd" clip-rule="evenodd" d="M8.46533 5.94376C9.6444 4.93765 10.7554 4.04084 12.2679 2.84263C11.7715 2.18538 11.3818 1.58554 11.1187 1.03906C9.79197 1.53255 8.53635 2.17655 7.38672 2.96848C7.50816 3.8664 7.84194 4.80922 8.46533 5.94376Z" fill="#112E39"/>
<path fill-rule="evenodd" clip-rule="evenodd" d="M21.3701 3.95312C20.5752 4.91324 19.6592 5.87666 18.4033 7.0734C20.5042 8.98184 21.429 9.82824 22.5433 10.8933C23.7779 9.45141 24.6114 8.33454 25.3349 7.17829C24.1831 6.18395 23.0423 5.25768 21.3701 3.95312Z" fill="#112E39"/>
<path fill-rule="evenodd" clip-rule="evenodd" d="M31.8877 11.7685C32.8806 12.9962 33.6545 14.1145 34.3077 15.2638C34.0887 13.2696 33.5187 11.3814 32.6738 9.64844C32.4935 10.2822 32.2333 10.9917 31.8877 11.7685Z" fill="#112E39"/>
<path fill-rule="evenodd" clip-rule="evenodd" d="M26.4158 8.14062C25.6743 9.29835 24.7907 10.4524 23.5557 11.8913C25.3405 13.6673 26.5162 14.9704 27.5032 16.1844C28.6819 14.6337 29.4945 13.3438 30.2099 11.9712C29.0955 10.6891 27.9227 9.50407 26.4158 8.14062Z" fill="#112E39"/>
<path fill-rule="evenodd" clip-rule="evenodd" d="M31.1895 13.1719C30.4569 14.5015 29.5821 15.8042 28.3975 17.344C29.5586 18.8804 30.4123 20.154 31.095 21.445C32.2501 20.0149 33.0571 18.7446 33.7718 17.3145C33.0895 15.8727 32.2917 14.5902 31.1895 13.1719Z" fill="#112E39"/>
<path fill-rule="evenodd" clip-rule="evenodd" d="M23.2323 1.04688C23.0166 1.58306 22.6622 2.17406 22.2217 2.81511C23.8321 4.06779 24.946 4.96902 26.0511 5.91735C26.6064 4.79495 26.8813 3.85986 26.9373 2.96599C25.7939 2.18289 24.5501 1.54331 23.2323 1.04688Z" fill="#112E39"/>
<path fill-rule="evenodd" clip-rule="evenodd" d="M17.3559 6.1245C18.6057 4.9355 19.4804 4.01623 20.2517 3.08262C18.2303 1.51788 17.675 1.08548 17.2142 0.710117L17.208 0.716005L17.1933 0.703125C16.4459 1.33646 15.5744 2.03713 14.292 3.05318C15.2462 4.12295 16.2273 5.08895 17.3559 6.1245Z" fill="#112E39"/>
<path fill-rule="evenodd" clip-rule="evenodd" d="M31.7559 22.859C32.0808 23.6332 32.3171 24.3538 32.4856 25.0368C33.381 23.3112 33.9838 21.4172 34.2469 19.4141C33.5731 20.5409 32.7782 21.6391 31.7559 22.859Z" fill="#112E39"/>
<path fill-rule="evenodd" clip-rule="evenodd" d="M27.1328 6.87947C28.6074 8.20169 29.789 9.35096 30.8706 10.5594C31.3376 9.37745 31.5205 8.481 31.6151 7.7645C30.6814 6.33445 29.541 5.04903 28.235 3.95312C28.0605 4.84517 27.694 5.80233 27.1328 6.87947Z" fill="#112E39"/>
<path fill-rule="evenodd" clip-rule="evenodd" d="M13.3708 1.97358C14.4288 1.1316 15.1762 0.537648 15.8232 0C14.6739 0.088688 13.557 0.287776 12.4814 0.589168C12.6974 1.00722 12.9782 1.4536 13.3708 1.97358Z" fill="#112E39"/>
<path fill-rule="evenodd" clip-rule="evenodd" d="M21.1141 1.95821C21.463 1.44411 21.6904 1.01098 21.8648 0.601764C20.8157 0.300372 19.7282 0.100917 18.6084 0.0078125C19.0456 0.353732 19.7194 0.87666 21.1141 1.95821Z" fill="#112E39"/>
<path fill-rule="evenodd" clip-rule="evenodd" d="M13.2574 30.482C14.138 29.4715 15.1099 28.5364 16.3037 27.4416C15.8547 27.0294 15.4054 26.6158 14.9531 26.2066C14.0434 25.3764 13.1363 24.5388 12.238 23.6953C10.9854 25.1133 10.1136 26.2301 9.37793 27.35C10.5684 28.3502 11.6235 29.1984 13.2574 30.482Z" fill="#112E39"/>
<path fill-rule="evenodd" clip-rule="evenodd" d="M17.3404 28.4062C16.1558 29.4875 15.2369 30.3891 14.3857 31.358C15.485 32.2191 16.4156 32.9477 17.184 33.5986C17.7305 33.1604 18.3362 32.693 20.1181 31.3354C19.4001 30.4522 18.5401 29.5467 17.3404 28.4062Z" fill="#112E39"/>
<path fill-rule="evenodd" clip-rule="evenodd" d="M3.29663 13.1406C2.13853 14.5721 1.29323 15.8619 0.560547 17.3126C1.32893 18.75 2.17975 20.031 3.39415 21.4861C4.14155 20.1639 5.03984 18.8829 6.24835 17.3391C4.78887 15.5042 3.9053 14.1909 3.29663 13.1406Z" fill="#112E39"/>
<path fill-rule="evenodd" clip-rule="evenodd" d="M13.4951 32.4688C13.1433 32.9489 12.8629 33.3814 12.6826 33.7671C13.6872 34.0361 14.7272 34.2223 15.794 34.3048C15.1408 33.7671 14.3875 33.1647 13.4951 32.4688Z" fill="#112E39"/>
<path fill-rule="evenodd" clip-rule="evenodd" d="M20.9575 32.4844C19.6956 33.4474 19.0398 33.9497 18.585 34.3074C19.6367 34.2187 20.6587 34.0355 21.6519 33.7698C21.5069 33.3885 21.2706 32.9602 20.9575 32.4844Z" fill="#112E39"/>
<path fill-rule="evenodd" clip-rule="evenodd" d="M7.55297 27.6441C6.06073 26.3362 4.87282 25.2046 3.74711 24.0078C3.30993 25.0511 3.04386 25.9862 2.93457 26.8845C3.90093 28.2851 5.06786 29.5348 6.39487 30.5928C6.57777 29.696 6.95901 28.7341 7.55297 27.6441Z" fill="#112E39"/>
<path fill-rule="evenodd" clip-rule="evenodd" d="M11.317 33.342C11.5507 32.8132 11.9139 32.2307 12.3809 31.5989C10.8416 30.3859 9.77475 29.5332 8.65787 28.5938C8.0757 29.7106 7.73898 30.6559 7.6709 31.5292C8.79955 32.2737 10.0257 32.875 11.317 33.342Z" fill="#112E39"/>
<path fill-rule="evenodd" clip-rule="evenodd" d="M0 15.383C0.69736 14.1925 1.52462 13.0432 2.58262 11.777C2.19254 10.9688 1.89373 10.2317 1.68102 9.58594C0.803712 11.3692 0.212704 13.3178 0 15.383Z" fill="#112E39"/>
<path fill-rule="evenodd" clip-rule="evenodd" d="M8.28511 26.4037C9.04135 25.2662 9.94258 24.1376 11.207 22.7105C9.5525 21.1001 8.32633 19.8058 7.17118 18.4531C5.97444 19.9954 5.13246 21.2624 4.40234 22.6159C5.57258 23.8895 6.74871 25.0473 8.28511 26.4037Z" fill="#112E39"/>
<path fill-rule="evenodd" clip-rule="evenodd" d="M2.70107 22.8567C1.62246 21.5963 0.77717 20.4709 0.0595703 19.3125C0.319378 21.3748 0.939826 23.3218 1.86203 25.0919C2.06296 24.3946 2.33454 23.6545 2.70107 22.8567Z" fill="#112E39"/>
<path fill-rule="evenodd" clip-rule="evenodd" d="M57.9378 19.9097L57.9584 19.9719C57.9882 21.6029 57.4918 22.8765 56.4695 23.7994C55.4498 24.7228 54.0407 25.1839 52.2441 25.1839C50.4122 25.1839 48.9347 24.594 47.8094 23.4167C46.6833 22.2395 46.1221 20.7163 46.1221 18.8506V15.8205C46.1221 13.9621 46.6686 12.4385 47.7648 11.254C48.8641 10.0675 50.3059 9.47656 52.0877 9.47656C53.9458 9.47656 55.3997 9.93177 56.4485 10.8389C57.4977 11.7485 58.0085 13.0281 57.979 14.6767L57.9584 14.7389H54.9802C54.9802 13.7611 54.7436 13.0314 54.274 12.5541C53.8011 12.0753 53.0714 11.8347 52.0877 11.8347C51.1714 11.8347 50.4564 12.2041 49.9423 12.9423C49.4311 13.678 49.1713 14.6311 49.1713 15.7995V18.8506C49.1713 20.0249 49.4433 20.9824 49.9839 21.7239C50.5245 22.4654 51.2807 22.8345 52.2441 22.8345C53.1601 22.8345 53.8427 22.5953 54.2946 22.1166C54.7436 21.6382 54.971 20.9025 54.971 19.9097H57.9378Z" fill="#112E39"/>
<path fill-rule="evenodd" clip-rule="evenodd" d="M62.5003 19.4107C62.5003 20.4462 62.6807 21.275 63.0468 21.9017C63.4075 22.5265 63.9955 22.8393 64.8081 22.8393C65.5971 22.8393 66.1759 22.5251 66.5425 21.8973C66.9086 21.2676 67.0922 20.4389 67.0922 19.4107V19.1906C67.0922 18.183 66.906 17.3635 66.5366 16.7265C66.1671 16.091 65.5823 15.7719 64.7845 15.7719C63.9955 15.7719 63.4163 16.0924 63.0501 16.7324C62.6836 17.3705 62.5003 18.1919 62.5003 19.1906V19.4107ZM59.4482 19.1906C59.4482 17.4993 59.921 16.1149 60.8635 15.0333C61.8059 13.9551 63.1149 13.4141 64.7845 13.4141C66.4626 13.4141 67.7775 13.9521 68.7291 15.0274C69.6804 16.1046 70.1562 17.4916 70.1562 19.1906V19.4107C70.1562 21.1171 69.6804 22.5059 68.7346 23.5783C67.7863 24.6521 66.4777 25.1887 64.8081 25.1887C63.1296 25.1887 61.8181 24.6521 60.8694 23.5783C59.921 22.5059 59.4482 21.1171 59.4482 19.4107V19.1906Z" fill="#112E39"/>
<path fill-rule="evenodd" clip-rule="evenodd" d="M78.993 23.2912C78.6445 23.8999 78.2011 24.3684 77.6605 24.6963C77.1225 25.0242 76.4961 25.1898 75.784 25.1898C74.5906 25.1898 73.6537 24.785 72.9802 23.9728C72.3064 23.1628 71.9697 21.9039 71.9697 20.1993V13.625H75.019V20.2199C75.019 21.2128 75.1548 21.8921 75.4238 22.2586C75.6924 22.6263 76.1123 22.8095 76.6764 22.8095C77.164 22.8095 77.5865 22.7315 77.935 22.5733C78.2839 22.4169 78.5705 22.1847 78.795 21.8774V13.625H81.856V24.9697H79.3179L78.993 23.2912Z" fill="#112E39"/>
<path fill-rule="evenodd" clip-rule="evenodd" d="M86.9626 13.6239L87.0983 15.249C87.4767 14.6683 87.9436 14.2178 88.4931 13.8955C89.0454 13.5735 89.6662 13.4141 90.3485 13.4141C91.4948 13.4141 92.3902 13.7821 93.0346 14.5192C93.6786 15.2578 94.0006 16.4222 94.0006 18.016V24.9682H90.9278V18.0263C90.9278 17.2167 90.7861 16.6404 90.5024 16.3022C90.2186 15.9636 89.7928 15.7929 89.2287 15.7929C88.7738 15.7929 88.3749 15.8782 88.0264 16.0497C87.6835 16.2212 87.3968 16.4575 87.1753 16.7589V24.9682H84.1113V13.6239H86.9626Z" fill="#112E39"/>
<path fill-rule="evenodd" clip-rule="evenodd" d="M109.8 16.2551L108.68 16.2242C108.225 16.2242 107.849 16.3173 107.557 16.5064C107.262 16.6971 107.04 16.9613 106.883 17.3043V24.9686H103.834V13.6243H106.677L106.813 15.3009C107.079 14.7069 107.421 14.2447 107.847 13.9106C108.266 13.5797 108.757 13.4141 109.306 13.4141C109.46 13.4141 109.8 13.4498 109.8 13.4498V16.2551Z" fill="#112E39"/>
<mask id="mask0_702_132" style="mask-type:alpha" maskUnits="userSpaceOnUse" x="0" y="0" width="184" height="35">
<path d="M0 34.3068H184V0H0V34.3068Z" fill="white"/>
</mask>
<g mask="url(#mask0_702_132)">
<path fill-rule="evenodd" clip-rule="evenodd" d="M163.906 24.9651H166.967V22.3516H163.906V24.9651Z" fill="#112E39"/>
<path fill-rule="evenodd" clip-rule="evenodd" d="M168.633 24.9615H171.697V13.6172H168.633V24.9615Z" fill="#112E39"/>
<path fill-rule="evenodd" clip-rule="evenodd" d="M176.342 19.4028C176.342 20.4383 176.525 21.2672 176.888 21.8939C177.252 22.5187 177.84 22.8314 178.649 22.8314C179.438 22.8314 180.017 22.5173 180.383 21.8895C180.753 21.2598 180.936 20.431 180.936 19.4028V19.1827C180.936 18.1751 180.75 17.3556 180.381 16.7186C180.012 16.0831 179.427 15.764 178.629 15.764C177.84 15.764 177.261 16.0846 176.894 16.7246C176.528 17.3627 176.342 18.184 176.342 19.1827V19.4028ZM173.292 19.1827C173.292 17.4914 173.765 16.107 174.708 15.0254C175.651 13.9472 176.96 13.4062 178.629 13.4062C180.307 13.4062 181.622 13.9442 182.573 15.0195C183.522 16.0967 184.001 17.4837 184.001 19.1827V19.4028C184.001 21.1092 183.525 22.498 182.576 23.5704C181.631 24.6442 180.322 25.1808 178.649 25.1808C176.974 25.1808 175.662 24.6442 174.714 23.5704C173.765 22.498 173.292 21.1092 173.292 19.4028V19.1827Z" fill="#112E39"/>
<path fill-rule="evenodd" clip-rule="evenodd" d="M136.229 24.9615H139.293V13.6172H136.229V24.9615Z" fill="#112E39"/>
<path fill-rule="evenodd" clip-rule="evenodd" d="M147.87 21.8154C147.87 21.4802 147.707 21.1924 147.382 20.9495C147.058 20.7074 146.454 20.4976 145.574 20.3162C144.247 20.0486 143.237 19.6483 142.548 19.1091C141.86 18.5715 141.517 17.8415 141.517 16.9163C141.517 15.9477 141.928 15.1174 142.753 14.433C143.577 13.7477 144.676 13.4062 146.047 13.4062C147.48 13.4062 148.627 13.7477 149.489 14.433C150.352 15.1174 150.768 15.9713 150.733 16.9907L150.712 17.0553H147.755C147.755 16.6005 147.607 16.2295 147.314 15.9418C147.019 15.6566 146.599 15.5131 146.047 15.5131C145.556 15.5131 145.169 15.6356 144.88 15.8796C144.596 16.1246 144.454 16.426 144.454 16.7804C144.454 17.1322 144.602 17.4161 144.898 17.6376C145.193 17.8562 145.796 18.0541 146.706 18.2285C148.097 18.5093 149.135 18.92 149.814 19.4609C150.497 20.0041 150.837 20.7489 150.837 21.7006C150.837 22.721 150.399 23.5557 149.528 24.2059C148.653 24.8558 147.501 25.1812 146.068 25.1812C144.558 25.1812 143.361 24.798 142.487 24.0326C141.609 23.2661 141.189 22.3946 141.234 21.4165L141.254 21.3547H144.052C144.076 21.963 144.274 22.4035 144.649 22.6754C145.028 22.947 145.521 23.0828 146.13 23.0828C146.697 23.0828 147.128 22.9709 147.424 22.7431C147.722 22.5157 147.87 22.2058 147.87 21.8154Z" fill="#112E39"/>
<path fill-rule="evenodd" clip-rule="evenodd" d="M118.388 13.6172L116.22 20.8296H116.155L116.031 20.2018L114.11 13.6172H110.819L114.846 24.9516L114.488 25.8318C114.34 26.2024 114.134 26.5112 113.859 26.7596C113.587 27.008 113.2 27.132 112.695 27.132C112.618 27.132 112.532 27.1261 112.438 27.1143L111.672 29.28C112.059 29.3702 112.449 29.4589 112.565 29.4806C112.784 29.5222 113.023 29.5428 113.283 29.5428C114.388 29.5428 115.215 29.2649 115.768 28.71C116.32 28.1543 116.757 27.4713 117.077 26.6606L121.683 13.6172H118.388Z" fill="#112E39"/>
<path fill-rule="evenodd" clip-rule="evenodd" d="M101.655 22.6785C101.531 22.7113 101.425 22.7378 101.381 22.7437C101.263 22.7613 101.121 22.7702 100.961 22.7702C100.66 22.7702 100.418 22.6756 100.234 22.4864C100.045 22.2973 99.9539 21.9841 99.9539 21.544V15.7646H101.874V13.6165H99.9539V10.8359H96.9046V13.6165H95.2471V15.7646H96.9046V21.5525C96.9046 22.8114 97.188 23.7303 97.7584 24.3114C98.3258 24.8917 99.1413 25.1813 100.196 25.1813C100.539 25.1813 100.855 25.1548 101.144 25.1015C101.416 25.054 102.06 24.8711 102.397 24.7614L101.655 22.6785Z" fill="#112E39"/>
<path fill-rule="evenodd" clip-rule="evenodd" d="M136.229 12.3103H139.293V9.69531H136.229V12.3103Z" fill="#112E39"/>
<path fill-rule="evenodd" clip-rule="evenodd" d="M168.633 12.3103H171.697V9.69531H168.633V12.3103Z" fill="#112E39"/>
<path fill-rule="evenodd" clip-rule="evenodd" d="M128.371 16.5014H126.202V12.0564H128.424C129.242 12.0564 129.863 12.2617 130.285 12.6753C130.711 13.0875 130.921 13.6428 130.921 14.3431C130.921 15.0552 130.711 15.5928 130.292 15.9564C129.872 16.32 129.234 16.5014 128.371 16.5014ZM134.794 24.9636L131.674 17.9859C132.634 17.3243 132.906 17.0394 133.358 16.3921C133.76 15.8147 133.984 14.9875 133.984 14.2058C133.984 12.7857 133.491 11.681 132.51 10.8861C131.526 10.0942 130.167 9.69531 128.424 9.69531H123.141V24.9636H126.202V18.9258H128.814L131.491 24.9636H134.794Z" fill="#112E39"/>
<path fill-rule="evenodd" clip-rule="evenodd" d="M159.405 24.9636H162.555L158.489 18.4058L162.377 13.6192H159.015L155.617 17.7703V9.69531H152.736V24.9636H155.617V21.9412L156.683 20.6396L159.405 24.9636Z" fill="#112E39"/>
</g>
</g>
<defs>
<clipPath id="clip0_702_132">
<rect width="184" height="35" fill="white"/>
</clipPath>
</defs>
</svg>
