<svg width="156" height="40" viewBox="0 0 156 40" fill="none" xmlns="http://www.w3.org/2000/svg">
<g style="mix-blend-mode:luminosity" clip-path="url(#clip0_667_394)">
<mask id="mask0_667_394" style="mask-type:luminance" maskUnits="userSpaceOnUse" x="0" y="0" width="156" height="40">
<path d="M155.162 0H0V40H155.162V0Z" fill="white"/>
</mask>
<g mask="url(#mask0_667_394)">
<path d="M40.5977 30.3301V0.046875H45.3116V11.9858C46.7961 9.77894 49.0226 8.67512 51.9909 8.67434C54.5229 8.67434 56.4801 9.42229 57.8627 10.9182C59.2453 12.4141 59.9368 14.4984 59.937 17.1709V30.3301H55.2229V17.8246C55.2229 14.3682 53.6803 12.6398 50.5951 12.6393C49.0522 12.6393 47.7863 13.1041 46.7972 14.0337C45.8084 14.9632 45.3133 16.2705 45.3124 17.9553V30.3298L40.5977 30.3301Z" fill="#323232"/>
<path d="M82.2147 27.714C80.1193 29.8055 77.4856 30.8512 74.3133 30.8512C71.1411 30.8512 68.4999 29.8055 66.3896 27.714C64.2794 25.6224 63.2244 22.964 63.2246 19.7389C63.2248 16.5139 64.2798 13.8634 66.3896 11.7874C68.4996 9.71084 71.1408 8.67236 74.3133 8.67188C77.4858 8.67141 80.1196 9.70991 82.2147 11.7874C84.3105 13.8646 85.3584 16.5152 85.3582 19.7389C85.358 22.9627 84.3102 25.621 82.2147 27.714ZM69.8386 25.0557C70.9583 26.3629 72.4499 27.0165 74.3133 27.0165C76.1768 27.0165 77.6683 26.3629 78.7879 25.0557C79.9079 23.7485 80.4681 21.9764 80.4686 19.7389C80.4686 17.5315 79.9012 15.774 78.7662 14.4667C77.6312 13.1593 76.1469 12.5057 74.3133 12.5058C72.4504 12.5058 70.9588 13.1521 69.8386 14.4448C68.7183 15.7374 68.1581 17.5019 68.1578 19.738C68.1578 21.9764 68.718 23.7489 69.8386 25.0557Z" fill="#323232"/>
<path d="M96.2709 30.8464C91.934 30.8464 89.7655 28.5224 89.7655 23.8745V13.1557H86.4922V9.1907H89.8973L90.9889 2.96094H94.5244V9.1907H102.95V13.1557H94.5247V23.744C94.5247 25.6905 95.2378 26.6637 96.6638 26.6635C98.0022 26.6635 99.2099 25.4434 100.287 23.0032L103.954 24.877C102.15 28.857 99.5883 30.8467 96.2709 30.8464Z" fill="#323232"/>
<path d="M105.47 40C103.375 40 101.643 39.419 100.275 38.257L102.022 34.5534C102.866 35.5405 103.783 36.0345 104.772 36.0355C106.082 36.0355 106.736 35.1932 106.736 33.5084V9.19399H111.45V33.5944C111.45 35.8602 110.89 37.4942 109.77 38.4962C108.649 39.4984 107.216 39.9995 105.47 40ZM109.094 5.62072C108.319 5.64697 107.565 5.36492 106.998 4.83662C106.726 4.58019 106.511 4.26889 106.368 3.92335C106.225 3.57782 106.157 3.2059 106.169 2.83225C106.159 2.45554 106.227 2.08079 106.37 1.73192C106.513 1.38304 106.727 1.0677 106.998 0.806013C107.568 0.287445 108.312 0 109.083 0C109.854 0 110.598 0.287445 111.168 0.806013C111.445 1.06445 111.664 1.37868 111.811 1.72797C111.958 2.07724 112.029 2.45362 112.019 2.83225C112.026 3.20404 111.953 3.57302 111.807 3.91479C111.66 4.25655 111.442 4.5633 111.168 4.81474C110.892 5.07872 110.567 5.2858 110.211 5.4241C109.855 5.56242 109.476 5.62924 109.094 5.62072Z" fill="#323232"/>
<path d="M123.159 30.8505C120.743 30.8505 118.785 30.2476 117.287 29.0423C115.789 27.8368 115.039 26.2178 115.039 24.185C115.039 22.326 115.818 20.7498 117.375 19.4563C118.932 18.163 120.889 17.5166 123.246 17.5175C125.662 17.5175 127.699 18.2873 129.358 19.827V17.2558C129.358 15.7458 128.972 14.5766 128.201 13.7482C127.43 12.9198 126.331 12.5058 124.905 12.5063C122.024 12.5063 120.234 13.9732 119.535 16.907L115.213 15.992C115.795 13.7264 116.945 11.9399 118.662 10.6327C120.38 9.32547 122.519 8.67188 125.08 8.67188C127.874 8.67188 130.079 9.40539 131.694 10.8724C133.309 12.3395 134.116 14.4817 134.117 17.2991V30.3276H129.533V27.6693C127.99 29.7903 125.865 30.8508 123.159 30.8505ZM124.031 27.3646C126.127 27.3646 127.902 26.319 129.358 24.2276V23.5733C127.902 21.8305 126.127 20.959 124.031 20.9591C122.809 20.9591 121.819 21.2571 121.061 21.8531C120.703 22.1165 120.413 22.4615 120.216 22.8595C120.018 23.2573 119.919 23.6966 119.926 24.1405C119.914 24.5891 120.009 25.0341 120.203 25.4393C120.396 25.8443 120.683 26.1981 121.039 26.4716C121.783 27.0671 122.78 27.3648 124.031 27.3646Z" fill="#323232"/>
<path d="M138.703 30.3253V9.1924H143.287V12.8525C144.451 10.1802 146.459 8.8439 149.312 8.84375C150.999 8.84375 152.396 9.39565 153.502 10.4995C154.609 11.6033 155.162 13.0848 155.161 14.9439C155.149 16.0566 154.958 17.1601 154.593 18.2118L150.272 17.7761C150.36 17.1986 150.418 16.6169 150.446 16.0334C150.446 13.8547 149.544 12.7654 147.74 12.7652C146.517 12.7652 145.491 13.4115 144.662 14.7042C143.833 15.9968 143.418 17.7035 143.417 19.8243V30.3253H138.703Z" fill="#323232"/>
<path d="M11.1548 12.4306C14.6681 10.4825 19.4799 7.81379 19.4799 0.046875H13.6534C13.6534 4.39249 11.5338 5.56782 8.32517 7.34704C4.81183 9.29589 0 11.9634 0 19.7311H5.82652C5.82652 15.3852 7.94617 14.2099 11.1548 12.4306Z" fill="#FF3C00"/>
<path d="M21.2393 10.6406C21.2393 14.9865 19.1197 16.1618 15.9111 17.9407C12.3987 19.8889 7.58594 22.5572 7.58594 30.3247H13.4122C13.4122 25.9789 15.5319 24.8036 18.7404 23.0244C22.2538 21.0762 27.0654 18.4082 27.0654 10.6406H21.2393Z" fill="#FF3C00"/>
</g>
</g>
<defs>
<clipPath id="clip0_667_394">
<rect width="155.294" height="40" fill="white"/>
</clipPath>
</defs>
</svg>
