<svg width="68" height="40" viewBox="0 0 68 40" fill="none" xmlns="http://www.w3.org/2000/svg">
<mask id="mask0_667_310" style="mask-type:luminance" maskUnits="userSpaceOnUse" x="0" y="0" width="68" height="40">
<path d="M67.013 0H0V40H67.013V0Z" fill="white"/>
</mask>
<g mask="url(#mask0_667_310)">
<mask id="mask1_667_310" style="mask-type:luminance" maskUnits="userSpaceOnUse" x="-19" y="-33" width="105" height="106">
<path d="M-18.5215 -32.8594H85.7064V72.9036H-18.5215V-32.8594Z" fill="white"/>
</mask>
<g mask="url(#mask1_667_310)">
<mask id="mask2_667_310" style="mask-type:luminance" maskUnits="userSpaceOnUse" x="-3" y="19" width="86" height="27">
<path d="M82.1986 19.125H-2.83398V45.2095H82.1986V19.125Z" fill="white"/>
</mask>
<g mask="url(#mask2_667_310)">
<path d="M62.0638 21.3984L59.1359 34.8129L56.4896 21.3984H51.0036L48.2075 34.8637L45.2513 21.3984H41.3145L45.2707 38.9041H51.1302L53.7234 25.8815L56.1953 38.9041H62.08L66.0002 21.3984H62.0638Z" fill="black"/>
<path d="M13.0953 21.3984V27.941C9.8433 28.0903 7.18803 28.5606 5.36346 28.9869V21.3984H1.18359V38.9041H5.36346V33.0176C7.22431 32.4214 9.96486 31.9223 13.0953 31.8612V38.9041H17.2994V21.3984H13.0953Z" fill="black"/>
</g>
</g>
<mask id="mask3_667_310" style="mask-type:luminance" maskUnits="userSpaceOnUse" x="-19" y="-33" width="105" height="106">
<path d="M-18.5215 -32.8594H85.7064V72.9036H-18.5215V-32.8594Z" fill="white"/>
</mask>
<g mask="url(#mask3_667_310)">
<mask id="mask4_667_310" style="mask-type:luminance" maskUnits="userSpaceOnUse" x="-11" y="-5" width="84" height="25">
<path d="M72.4332 -4.25H-10.7852V19.7517H72.4332V-4.25Z" fill="white"/>
</mask>
<g mask="url(#mask4_667_310)">
<path d="M62.0638 0.59375L59.1359 14.0082L56.4896 0.59375H51.0036L48.2075 14.059L45.2513 0.59375H41.3145L45.2707 18.0994H51.1302L53.7234 5.07678L56.1953 18.0994H62.08L66.0002 0.59375H62.0638Z" fill="black"/>
<path d="M17.2996 0.59375V18.0994H13.0954V11.0565C9.96492 11.1176 7.22444 11.6167 5.36359 12.2129V18.0994H1.18359V0.59375H5.36359V8.18224C7.18816 7.75589 9.84337 7.28564 13.0954 7.13632V0.59375H17.2996Z" fill="black"/>
</g>
</g>
<mask id="mask5_667_310" style="mask-type:alpha" maskUnits="userSpaceOnUse" x="20" y="13" width="24" height="28">
<path fill-rule="evenodd" clip-rule="evenodd" d="M37.2805 22.3203C35.2054 23.5463 33.0338 23.8189 30.6205 23.9858C26.8154 24.249 24.3703 26.9568 24.3703 30.0725C24.3703 33.2818 26.8392 35.7871 30.002 35.7871C33.21 35.7871 35.7612 33.2364 35.7612 30.0725C35.7612 29.6036 35.6472 29.0347 35.3957 28.2824C35.3928 28.2759 35.3784 28.243 35.3411 28.1735C35.2844 28.0678 35.213 27.947 35.0981 27.7524L35.0922 27.7424C34.8672 27.3612 34.555 26.83 34.241 26.1369L38.0824 24.3452C38.2943 24.813 38.5056 25.1763 38.7189 25.5376C38.7335 25.5623 38.7492 25.5887 38.7657 25.6166C38.9445 25.9173 39.2287 26.3952 39.3953 26.8923L39.3953 26.8923C39.7159 27.8488 39.989 28.9288 39.989 30.0725C39.989 35.6966 35.4543 40.0771 30.002 40.0771C24.5043 40.0771 20.1426 35.6511 20.1426 30.0725C20.1426 24.4002 24.6178 20.1011 30.333 19.7057C32.6798 19.5434 33.9882 19.3012 35.1532 18.6129C36.3395 17.912 37.6197 16.5975 39.4654 13.7188L43.0092 16.0582C41.0542 19.1074 39.3343 21.1068 37.2805 22.3203Z" fill="#FF0000"/>
</mask>
<g mask="url(#mask5_667_310)">
<mask id="mask6_667_310" style="mask-type:luminance" maskUnits="userSpaceOnUse" x="-19" y="-33" width="105" height="106">
<path d="M-18.5215 -32.8594H85.7064V72.9036H-18.5215V-32.8594Z" fill="white"/>
</mask>
<g mask="url(#mask6_667_310)">
<path d="M27.057 24.9176C29.7 23.1617 34.1342 24.3247 37.9117 21.7238C40.8197 19.7216 42.1828 17.1597 42.6039 16.3368L39.3549 13.9219C39.2115 14.2303 38.1699 16.9335 35.7203 18.5189C33.006 20.2755 28.8102 19.4837 25.6218 21.2619C22.4334 23.04 20.4395 26.2303 20.4395 30.0041C20.4395 35.4422 24.7839 39.8506 30.1431 39.8506C35.8036 39.8506 39.8467 35.4422 39.8467 30.0041C39.8467 27.9203 39.1303 26.1067 38.0418 24.5154L34.3633 26.1953C34.3633 26.1953 35.9106 27.9199 35.9106 30.0041C35.9106 33.3018 33.393 36.0938 30.1431 36.0938C26.8932 36.0938 24.2586 33.3018 24.2586 30.0041C24.2586 27.6586 25.2764 26.1005 27.057 24.9176Z" fill="black"/>
</g>
</g>
<mask id="mask7_667_310" style="mask-type:alpha" maskUnits="userSpaceOnUse" x="17" y="-1" width="23" height="25">
<path fill-rule="evenodd" clip-rule="evenodd" d="M21.0636 9.08669C21.0636 3.96033 25.159 -0.195312 30.2109 -0.195312C35.3024 -0.195312 39.2632 4.00092 39.2632 9.08669C39.2632 10.3812 39.0054 11.2528 38.789 11.9842C38.7269 12.1943 38.6682 12.3929 38.62 12.5865L34.3346 11.4883C34.4738 10.9289 34.5778 10.5799 34.6541 10.3234C34.797 9.84362 34.8433 9.68826 34.8433 9.08669C34.8433 6.3968 32.7822 4.28969 30.2109 4.28969C27.6 4.28969 25.4835 6.43738 25.4835 9.08669C25.4835 10.0625 26.149 11.3857 27.5567 12.5828C28.8824 13.7102 30.4533 14.3613 31.6633 14.4149C31.7437 14.4159 31.8168 14.4175 31.8823 14.4193L31.8231 18.9035C31.7338 18.9035 31.6444 18.9019 31.555 18.8989C30.7352 18.8914 28.9273 18.9525 26.9061 19.5016C24.6864 20.1047 22.382 21.247 20.7584 23.3527L17.2773 20.589C19.2746 17.9986 21.8757 16.5011 24.2845 15.6344C22.5397 14.007 21.0636 11.7038 21.0636 9.08669Z" fill="#FF0000"/>
</mask>
<g mask="url(#mask7_667_310)">
<mask id="mask8_667_310" style="mask-type:luminance" maskUnits="userSpaceOnUse" x="-19" y="-33" width="105" height="106">
<path d="M-18.5215 -32.8594H85.7064V72.9036H-18.5215V-32.8594Z" fill="white"/>
</mask>
<g mask="url(#mask8_667_310)">
<path d="M30.1821 18.0534V14.5735V14.5594C27.1772 14.2759 25.1238 12.0242 25.1238 9.18947C25.1238 6.35469 27.3885 3.93807 30.1821 3.93807C33.168 3.93807 35.1234 5.89052 35.1234 8.7908C35.1234 10.3652 34.5536 11.3604 34.5536 11.3604L38.3608 12.2831C38.7275 11.2963 39.0456 10.0659 39.0456 8.94899C39.0456 3.98163 35.0773 0.195312 30.1821 0.195312C25.2869 0.195312 21.3185 4.22211 21.3185 9.18947C21.3185 11.7403 22.676 14.2944 24.5918 15.6119C20.7907 16.5944 18.8496 19.282 18.8496 19.282L20.7905 22.8207C22.5188 20.4083 25.7494 18.1836 30.1821 18.0534Z" fill="black"/>
</g>
</g>
</g>
</svg>
