<svg xmlns="http://www.w3.org/2000/svg" width="169.229" height="100" viewBox="0 0 169.229 100">
  <g id="HH_Logo_RGB_Black_AW" transform="translate(-20 -20)">
    <g id="Group_189" data-name="Group 189" transform="translate(20 20)">
      <path id="Path_24" data-name="Path 24" d="M48.756,40.672H29.789V23.235H20V66.062h9.789V49.544H48.756v16.52h9.789V23.235H48.756Zm0,50.636H29.789V73.871H20V116.7h9.789V100.18H48.756V116.7h9.789V73.871H48.756Zm125.517,16.824-6.364-34.314H153l-6.349,34.314-5.724-34.314H131.66L139,116.641h15.238l6.208-34.069,6.208,34.069h15.238l7.337-42.823h-9.533ZM154.237,66.061l6.208-34.069,6.208,34.069h15.238l7.337-42.823H179.7l-5.423,34.314-6.364-34.314H153l-6.35,34.314-5.724-34.314h-9.262L139,66.061ZM98.021,81.194l2.386-.4.275-.031a38.782,38.782,0,0,0,29.267-19.534l-8.491-4.771A29.11,29.11,0,0,1,99.549,71.09l-.229.026-.059.006-.184.018c-.218.023-.44.049-.658.078-.144.019-.288.039-.431.061a24.5,24.5,0,1,0,23.469,9.809l-7.871,5.736a14.751,14.751,0,1,1-15.566-5.63Zm-1.9-16.514v-9.9H96.1a12.513,12.513,0,1,1,10.91-6.349l8.468,4.811A22.263,22.263,0,1,0,80.37,58q.775.775,1.609,1.462a41.1,41.1,0,0,0-19.661,24.2l9.324,2.815A31.335,31.335,0,0,1,96.124,64.68Z" transform="translate(-20 -20)"/>
    </g>
  </g>
</svg>
