<svg width="130" height="40" viewBox="0 0 130 40" fill="none" xmlns="http://www.w3.org/2000/svg">
<g style="mix-blend-mode:luminosity">
<path fill-rule="evenodd" clip-rule="evenodd" d="M32.5406 37.1917H2.80664V2.80469H32.5406V37.1917Z" fill="#335290"/>
<path fill-rule="evenodd" clip-rule="evenodd" d="M63.8171 37.1917H34.4961V2.80469H63.8171V37.1917Z" fill="#335290"/>
<path fill-rule="evenodd" clip-rule="evenodd" d="M95.1159 37.1917H65.7949V2.80469H95.1159V37.1917Z" fill="#335290"/>
<path fill-rule="evenodd" clip-rule="evenodd" d="M126.308 37.1917H96.9434V2.80469H126.308V37.1917Z" fill="#335290"/>
<path fill-rule="evenodd" clip-rule="evenodd" d="M120.469 27.1546C119.032 27.9767 117.828 28.5667 116.857 28.8834C115.885 29.2001 114.911 29.3476 113.92 29.3476C112.483 29.3476 111.088 29.0092 109.736 28.3368C108.406 27.66 107.35 26.608 106.567 25.1937C105.806 23.7599 105.426 21.9053 105.385 19.5865H113.159C114.892 19.5865 116.644 19.5453 118.376 19.4174C119.284 19.3545 120.341 19.2286 121.504 19.0182C121.567 18.3632 121.588 17.8144 121.588 17.3719C121.588 15.5802 121.249 13.9794 120.573 12.5651C119.897 11.153 118.841 10.0359 117.385 9.21381C115.926 8.39171 114.301 7.96875 112.503 7.96875C111.025 7.96875 109.651 8.24422 108.384 8.77132C107.413 9.15091 106.441 9.67801 105.47 10.3526C104.498 11.0055 103.778 11.5955 103.294 12.1226C102.659 12.8189 102.087 13.9143 101.581 15.411C101.075 16.8882 100.82 18.5541 100.82 20.4086C100.82 22.7708 101.307 24.8141 102.257 26.5863C103.209 28.3368 104.539 29.6643 106.25 30.5493C107.96 31.4147 109.884 31.8573 111.997 31.8573C113.075 31.8573 114.087 31.751 115.059 31.5189C116.031 31.2868 116.898 30.9918 117.659 30.6556C118.165 30.443 118.967 29.981 120.089 29.2847L120.847 27.5559L120.469 27.1546ZM107.095 11.5543C108.195 10.2246 109.673 9.55003 111.512 9.55003C113.244 9.55003 114.616 10.1617 115.652 11.3851C116.687 12.6085 117.215 14.5065 117.215 17.0986C117.215 17.309 117.215 17.6257 117.194 18.0269C116.496 18.0899 115.103 18.1311 112.946 18.1311C112.04 18.1311 110.371 18.0899 107.96 18.0269C106.695 17.9424 105.828 17.8794 105.385 17.8361C105.404 14.9685 105.976 12.8601 107.095 11.5543Z" fill="white"/>
<path fill-rule="evenodd" clip-rule="evenodd" d="M89.7298 28.3749L88.7779 29.9779C87.6802 30.5896 86.5803 31.0104 85.5045 31.3054C84.4263 31.5787 83.2005 31.7067 81.8487 31.7067C78.4905 31.7067 75.8062 30.6937 73.8217 28.6699C71.8134 26.6461 70.8223 23.8414 70.8223 20.2993C70.8223 18.423 71.0961 16.8005 71.6243 15.4079C72.1721 14.0175 72.8284 12.9416 73.6108 12.2041C74.1369 11.677 75.1519 10.9807 76.6299 10.1391C78.1102 9.29532 79.1447 8.76822 79.7359 8.51444C80.814 8.05024 82.1247 7.82031 83.6439 7.82031C85.0806 7.82031 86.3695 7.96565 87.5324 8.26281C88.2714 8.45153 88.9886 8.76822 89.7298 9.21071C89.5386 10.4341 89.3908 11.382 89.306 12.0154C89.2213 12.6271 89.1169 13.7854 88.9886 15.4513H87.5954C87.489 13.9112 87.4041 12.9633 87.2999 12.5837C87.2368 12.3516 87.1086 12.1412 86.8759 11.9525C86.3065 11.5078 85.587 11.1282 84.6807 10.8137C83.7918 10.497 82.8006 10.3278 81.7421 10.3278C80.4118 10.3278 79.2513 10.6011 78.2775 11.1499C77.3059 11.6987 76.5473 12.5837 76.0192 13.7854C75.4693 14.9871 75.215 16.4621 75.215 18.2343C75.215 20.4272 75.5953 22.3881 76.3561 24.1364C77.1168 25.9086 78.1515 27.1732 79.4838 27.9953C80.7922 28.7957 82.2507 29.197 83.8765 29.197C84.7003 29.197 85.4828 29.0907 86.2652 28.902C87.0237 28.6916 88.0171 28.312 89.243 27.7415L89.7298 28.3749Z" fill="white"/>
<path fill-rule="evenodd" clip-rule="evenodd" d="M40.928 23.8002H42.3234C42.343 24.7286 42.3865 25.4661 42.4712 25.9932C42.5559 26.5398 42.6821 27.0669 42.8712 27.594C43.0624 28.1016 43.3581 28.5441 43.7601 28.902C44.1601 29.2599 44.5839 29.5354 45.049 29.7241C45.5337 29.9345 45.9988 30.0625 46.4857 30.1254C46.9704 30.1883 47.7095 30.2295 48.7027 30.2295C50.3089 30.2295 51.6392 29.787 52.6956 28.9237C53.7301 28.0582 54.2583 26.8999 54.2583 25.4032C54.2583 24.7286 54.091 24.1364 53.7518 23.631C53.4345 23.1039 52.9498 22.7243 52.3369 22.4293C51.724 22.1343 50.3938 21.7547 48.3658 21.3122C46.3357 20.848 45.0273 20.5118 44.4143 20.2993C43.5275 19.963 42.8081 19.5618 42.2799 19.078C41.7518 18.5922 41.3301 18.0022 41.0345 17.2647C40.7172 16.5272 40.5476 15.7246 40.5476 14.8613C40.5476 13.6162 40.8867 12.4579 41.5627 11.4037C42.2386 10.3278 43.2732 9.46452 44.7099 8.80943C46.1466 8.15653 47.7095 7.82031 49.4005 7.82031C50.4351 7.82031 51.5979 7.94613 52.9498 8.21944C54.28 8.49275 55.3581 8.80943 56.2014 9.21071C56.1601 11.0024 56.1384 12.8375 56.1188 14.6921H54.7234C54.6387 13.5316 54.5343 12.7529 54.4278 12.395C54.343 12.0154 54.1952 11.6987 54.0061 11.4037C53.8366 11.1087 53.541 10.8137 53.0976 10.4753C52.6738 10.1586 52.1043 9.86363 51.4283 9.59032C50.7307 9.33653 49.8851 9.21071 48.894 9.21071C47.4768 9.21071 46.3357 9.63152 45.4706 10.4536C44.6252 11.2974 44.1817 12.267 44.1817 13.3841C44.1817 14.0175 44.3079 14.5446 44.5621 14.9871C44.8164 15.4513 45.1317 15.8092 45.5555 16.0825C45.9575 16.358 46.5488 16.6118 47.2877 16.8417L51.2371 17.833C53.2454 18.3384 54.6169 18.783 55.3776 19.1409C56.1188 19.5205 56.7317 20.0888 57.1948 20.848C57.6599 21.6289 57.8708 22.5551 57.8708 23.6527C57.8708 25.8023 56.9839 27.7003 55.2103 29.3033C53.4345 30.9041 51.048 31.7067 48.0702 31.7067C46.6966 31.7067 44.8795 31.4962 42.5972 31.0733C41.3301 30.8412 40.6541 30.672 40.5694 30.5679C40.5063 30.5245 40.4629 30.4399 40.4629 30.3358C40.4629 30.2295 40.4845 30.082 40.5063 29.915C40.6541 29.2404 40.7585 28.5636 40.8019 27.9107C40.865 27.2578 40.9063 25.8869 40.928 23.8002Z" fill="white"/>
<path fill-rule="evenodd" clip-rule="evenodd" d="M7.27543 25.6765C7.67527 26.6678 8.26865 27.6374 9.04904 28.5853C9.83151 29.5354 10.8444 30.3358 12.1137 30.9475C13.3591 31.5787 14.9023 31.8954 16.7172 31.8954C19.0429 31.8954 21.1751 31.3487 23.1182 30.2295C25.0418 29.1341 26.5416 27.6157 27.5979 25.6765C28.6543 23.7156 29.2041 21.5856 29.2041 19.2255C29.2041 15.8721 28.1696 13.1325 26.0982 11.0024C24.0486 8.87234 21.3664 7.82031 18.091 7.82031C14.6067 7.82031 11.7529 8.95693 9.53592 11.2345C7.29707 13.5121 6.19727 16.4426 6.19727 20.0476C6.19727 22.0497 6.55592 23.926 7.27543 25.6765ZM12.3876 11.5729C13.5916 10.1174 15.1762 9.39943 17.1194 9.39943C18.493 9.39943 19.7602 9.77902 20.9013 10.5599C22.0424 11.3191 22.9705 12.6466 23.7117 14.5229C24.4507 16.3992 24.8093 18.6139 24.8093 21.1864C24.8093 24.2839 24.1964 26.5832 22.9509 28.0799C21.7251 29.5766 20.1819 30.3141 18.3452 30.3141C16.9085 30.3141 15.5783 29.8304 14.3525 28.8803C13.1049 27.9324 12.1767 26.4357 11.542 24.3902C10.8878 22.3252 10.5705 20.2993 10.5705 18.2972C10.5705 15.2626 11.1617 13.0045 12.3876 11.5729Z" fill="white"/>
</g>
</svg>
