<svg width="145" height="40" viewBox="0 0 145 40" fill="none" xmlns="http://www.w3.org/2000/svg">
<g style="mix-blend-mode:luminosity" clip-path="url(#clip0_667_371)">
<path d="M78.0695 18.3047V21.4112H76.4277V12.5859H79.3023C79.892 12.5859 80.4028 12.6551 80.8343 12.7934C81.2652 12.9317 81.6217 13.125 81.9023 13.3731C82.1829 13.6213 82.3906 13.9184 82.525 14.2642C82.6588 14.6102 82.7262 14.9884 82.7262 15.3994C82.7262 15.8268 82.6548 16.2183 82.5125 16.5743C82.3702 16.9305 82.1565 17.2366 81.8719 17.4928C81.5867 17.7492 81.2307 17.9487 80.8038 18.091C80.3764 18.2335 79.8761 18.3047 79.3023 18.3047H78.0695ZM78.0695 17.0229H79.3023C79.6034 17.0229 79.8656 16.9855 80.0898 16.9101C80.3135 16.8347 80.4982 16.7268 80.645 16.5865C80.7913 16.4462 80.9012 16.2752 80.9746 16.074C81.048 15.8725 81.0844 15.6478 81.0844 15.3994C81.0844 15.1634 81.048 14.95 80.9746 14.7585C80.9012 14.5675 80.7913 14.4047 80.645 14.2704C80.4982 14.1361 80.3135 14.0335 80.0898 13.9621C79.8656 13.8909 79.6034 13.8552 79.3023 13.8552H78.0695V17.0229Z" fill="#152842"/>
<path d="M90.3864 21.4169H89.7088C89.5665 21.4169 89.4547 21.3954 89.3733 21.3527C89.2919 21.3101 89.231 21.2237 89.19 21.0934L89.0557 20.648C88.8969 20.7903 88.7416 20.9156 88.5888 21.0232C88.4365 21.1311 88.2787 21.2217 88.116 21.2948C87.9532 21.368 87.7804 21.4229 87.5972 21.4596C87.4139 21.4963 87.2107 21.5145 86.987 21.5145C86.7224 21.5145 86.4782 21.4788 86.2545 21.4074C86.0308 21.336 85.8386 21.2289 85.6778 21.0861C85.517 20.9431 85.3917 20.7655 85.3023 20.5531C85.2129 20.3409 85.168 20.094 85.168 19.8123C85.168 19.5754 85.2299 19.3417 85.3542 19.111C85.478 18.8804 85.6848 18.6721 85.9739 18.4864C86.2625 18.3006 86.647 18.1466 87.1273 18.024C87.6072 17.9017 88.2034 17.8403 88.9154 17.8403V17.4715C88.9154 17.0491 88.827 16.7365 88.6497 16.5335C88.473 16.3306 88.2153 16.2292 87.8778 16.2292C87.6336 16.2292 87.4304 16.2577 87.2676 16.3146C87.1048 16.3715 86.9635 16.4357 86.8432 16.5068C86.7234 16.578 86.6125 16.6421 86.5106 16.6991C86.4088 16.756 86.2969 16.7844 86.1751 16.7844C86.0732 16.7844 85.9859 16.758 85.9125 16.7051C85.8396 16.6524 85.7801 16.5872 85.7357 16.5098L85.4611 16.0277C86.1811 15.3686 87.0499 15.0391 88.067 15.0391C88.433 15.0391 88.7596 15.099 89.0467 15.2191C89.3333 15.3392 89.5765 15.5059 89.7762 15.7194C89.9754 15.9331 90.1267 16.1885 90.2306 16.4854C90.3345 16.7824 90.3864 17.108 90.3864 17.462V21.4169ZM87.4569 20.4769C87.6112 20.4769 87.754 20.463 87.8838 20.435C88.0141 20.407 88.1374 20.3648 88.2533 20.3087C88.3691 20.2527 88.481 20.1836 88.5888 20.1014C88.6967 20.0196 88.8055 19.9222 88.9154 19.8101V18.762C88.476 18.762 88.109 18.7897 87.8139 18.8449C87.5188 18.9003 87.2816 18.971 87.1028 19.0571C86.9236 19.1432 86.7968 19.2436 86.7214 19.3582C86.646 19.473 86.6085 19.5979 86.6085 19.7332C86.6085 19.9996 86.6869 20.1901 86.8432 20.3049C87 20.4198 87.2042 20.4769 87.4569 20.4769Z" fill="#152842"/>
<path d="M93.4316 21.4169V15.1549H94.3169C94.4712 15.1549 94.5791 15.1834 94.6405 15.2403C94.7014 15.2975 94.7419 15.3951 94.7623 15.5334L94.8537 16.2901C95.0779 15.9036 95.3401 15.5986 95.6411 15.3746C95.9422 15.1509 96.2798 15.0391 96.6543 15.0391C96.9634 15.0391 97.22 15.1102 97.4232 15.2525L97.228 16.3817C97.216 16.4549 97.1895 16.5068 97.1486 16.5373C97.1082 16.5677 97.0532 16.583 96.9838 16.583C96.9229 16.583 96.8395 16.569 96.7337 16.5403C96.6278 16.5121 96.4875 16.4976 96.3127 16.4976C95.9992 16.4976 95.7305 16.5842 95.5068 16.757C95.2831 16.93 95.0939 17.1834 94.9396 17.517V21.4169H93.4316Z" fill="#152842"/>
<path d="M101.586 12.3438V21.4132H100.078V12.3438H101.586Z" fill="#152842"/>
<path d="M109.757 21.4169H109.08C108.938 21.4169 108.826 21.3954 108.744 21.3527C108.663 21.3101 108.602 21.2237 108.561 21.0934L108.427 20.648C108.268 20.7903 108.113 20.9156 107.96 21.0232C107.808 21.1311 107.65 21.2217 107.487 21.2948C107.324 21.368 107.152 21.4229 106.968 21.4596C106.785 21.4963 106.582 21.5145 106.358 21.5145C106.093 21.5145 105.849 21.4788 105.626 21.4074C105.402 21.336 105.21 21.2289 105.049 21.0861C104.888 20.9431 104.763 20.7655 104.673 20.5531C104.584 20.3409 104.539 20.094 104.539 19.8123C104.539 19.5754 104.601 19.3417 104.725 19.111C104.849 18.8804 105.056 18.6721 105.345 18.4864C105.634 18.3006 106.018 18.1466 106.498 18.024C106.978 17.9017 107.574 17.8403 108.286 17.8403V17.4715C108.286 17.0491 108.198 16.7365 108.021 16.5335C107.844 16.3306 107.586 16.2292 107.249 16.2292C107.005 16.2292 106.801 16.2577 106.639 16.3146C106.476 16.3715 106.335 16.4357 106.214 16.5068C106.094 16.578 105.984 16.6421 105.882 16.6991C105.78 16.756 105.668 16.7844 105.546 16.7844C105.444 16.7844 105.357 16.758 105.284 16.7051C105.211 16.6524 105.151 16.5872 105.107 16.5098L104.832 16.0277C105.552 15.3686 106.421 15.0391 107.438 15.0391C107.804 15.0391 108.131 15.099 108.418 15.2191C108.704 15.3392 108.948 15.5059 109.147 15.7194C109.347 15.9331 109.498 16.1885 109.602 16.4854C109.706 16.7824 109.757 17.108 109.757 17.462V21.4169ZM106.828 20.4769C106.982 20.4769 107.125 20.463 107.255 20.435C107.385 20.407 107.509 20.3648 107.624 20.3087C107.74 20.2527 107.852 20.1836 107.96 20.1014C108.068 20.0196 108.177 19.9222 108.286 19.8101V18.762C107.847 18.762 107.48 18.7897 107.185 18.8449C106.89 18.9003 106.653 18.971 106.474 19.0571C106.295 19.1432 106.168 19.2436 106.092 19.3582C106.017 19.473 105.98 19.5979 105.98 19.7332C105.98 19.9996 106.058 20.1901 106.214 20.3049C106.371 20.4198 106.575 20.4769 106.828 20.4769Z" fill="#152842"/>
<path d="M112.803 21.4143V15.1523H113.724C113.92 15.1523 114.048 15.2439 114.109 15.4269L114.207 15.8908C114.317 15.7687 114.432 15.6569 114.551 15.555C114.672 15.4534 114.8 15.366 114.936 15.2926C115.072 15.2195 115.219 15.1615 115.376 15.1189C115.532 15.0759 115.704 15.0547 115.891 15.0547C116.286 15.0547 116.611 15.1615 116.865 15.375C117.119 15.5887 117.309 15.8726 117.435 16.2266C117.533 16.0189 117.655 15.8411 117.801 15.6926C117.948 15.544 118.109 15.4229 118.284 15.3293C118.459 15.2357 118.645 15.1665 118.842 15.1218C119.039 15.0772 119.238 15.0547 119.437 15.0547C119.783 15.0547 120.09 15.1076 120.359 15.2132C120.628 15.3191 120.853 15.4739 121.037 15.6771C121.219 15.8808 121.359 16.1287 121.455 16.4218C121.55 16.7147 121.598 17.0505 121.598 17.429V21.4143H120.09V17.429C120.09 17.03 120.003 16.7299 119.828 16.5287C119.653 16.3272 119.397 16.2266 119.059 16.2266C118.904 16.2266 118.761 16.2531 118.628 16.3057C118.497 16.3587 118.38 16.4351 118.281 16.5347C118.181 16.6345 118.103 16.7596 118.046 16.9102C117.989 17.0607 117.96 17.2335 117.96 17.429V21.4143H116.447V17.429C116.447 17.0098 116.362 16.7047 116.193 16.5135C116.024 16.3222 115.775 16.2266 115.446 16.2266C115.23 16.2266 115.028 16.2805 114.838 16.3881C114.649 16.496 114.473 16.6435 114.311 16.8308V21.4143H112.803Z" fill="#152842"/>
<path d="M127.232 15.0547C127.626 15.0547 127.99 15.1179 128.321 15.2439C128.653 15.37 128.938 15.5543 129.178 15.7962C129.419 16.0384 129.606 16.3355 129.74 16.6872C129.874 17.0392 129.941 17.441 129.941 17.8926C129.941 18.0067 129.936 18.1013 129.926 18.1765C129.916 18.2519 129.898 18.3108 129.871 18.3535C129.845 18.3962 129.809 18.4266 129.765 18.4451C129.72 18.4633 129.663 18.4726 129.593 18.4726H125.724C125.769 19.1154 125.942 19.5875 126.243 19.8884C126.544 20.1897 126.942 20.34 127.439 20.34C127.683 20.34 127.894 20.3118 128.071 20.2546C128.248 20.1977 128.402 20.1348 128.535 20.0654C128.667 19.9962 128.783 19.9333 128.882 19.8764C128.982 19.8192 129.079 19.7908 129.172 19.7908C129.233 19.7908 129.286 19.803 129.331 19.8275C129.376 19.8519 129.415 19.8864 129.447 19.9313L129.886 20.4806C129.72 20.6758 129.532 20.8396 129.325 20.9719C129.118 21.104 128.901 21.2098 128.675 21.2892C128.449 21.3686 128.219 21.4243 127.986 21.457C127.751 21.4895 127.525 21.5059 127.305 21.5059C126.87 21.5059 126.465 21.4335 126.09 21.2892C125.716 21.1449 125.391 20.9312 125.114 20.6484C124.837 20.3655 124.62 20.0157 124.461 19.5985C124.302 19.1816 124.223 18.6982 124.223 18.149C124.223 17.7218 124.292 17.3201 124.43 16.9436C124.569 16.5674 124.767 16.2398 125.025 15.961C125.284 15.6823 125.599 15.4616 125.971 15.2989C126.344 15.1361 126.764 15.0547 127.232 15.0547ZM127.262 16.135C126.823 16.135 126.479 16.2591 126.23 16.5072C125.982 16.7554 125.824 17.1074 125.755 17.563H128.587C128.587 17.3678 128.56 17.1838 128.507 17.0108C128.454 16.8378 128.373 16.6862 128.263 16.5562C128.153 16.4258 128.015 16.3232 127.848 16.2478C127.681 16.1727 127.486 16.135 127.262 16.135Z" fill="#152842"/>
<path d="M132.73 21.4143V15.1523H133.652C133.847 15.1523 133.976 15.2439 134.037 15.4269L134.141 15.9213C134.267 15.7912 134.4 15.6731 134.541 15.5672C134.681 15.4616 134.829 15.37 134.986 15.2926C135.143 15.2155 135.31 15.1563 135.489 15.1156C135.668 15.0752 135.864 15.0547 136.075 15.0547C136.417 15.0547 136.72 15.1126 136.985 15.2287C137.249 15.3445 137.47 15.5073 137.647 15.7168C137.824 15.9265 137.958 16.1767 138.05 16.4675C138.141 16.7586 138.187 17.0789 138.187 17.429V21.4143H136.68V17.429C136.68 17.0465 136.591 16.7504 136.414 16.5409C136.237 16.3312 135.972 16.2266 135.618 16.2266C135.357 16.2266 135.113 16.2855 134.885 16.4036C134.657 16.5214 134.442 16.6822 134.238 16.8857V21.4143H132.73Z" fill="#152842"/>
<path d="M143.29 21.5104C142.749 21.5104 142.332 21.3569 142.039 21.0495C141.746 20.7424 141.6 20.3183 141.6 19.777V16.28H140.965C140.884 16.28 140.813 16.2535 140.754 16.2006C140.695 16.1477 140.666 16.0683 140.666 15.9624V15.3645L141.673 15.1997L141.99 13.4908C142.007 13.4094 142.044 13.3462 142.103 13.3015C142.162 13.2568 142.236 13.2344 142.326 13.2344H143.107V15.2057H144.755V16.28H143.107V19.6734C143.107 19.8686 143.156 20.0212 143.254 20.131C143.351 20.2409 143.482 20.2958 143.644 20.2958C143.738 20.2958 143.816 20.2848 143.879 20.2623C143.942 20.2399 143.997 20.2167 144.044 20.1922C144.091 20.1677 144.132 20.1443 144.169 20.122C144.206 20.0996 144.242 20.0883 144.279 20.0883C144.324 20.0883 144.361 20.0996 144.389 20.122C144.417 20.1443 144.448 20.178 144.48 20.2226L144.932 20.9552C144.713 21.1382 144.46 21.2765 144.175 21.3701C143.891 21.4637 143.596 21.5104 143.29 21.5104Z" fill="#152842"/>
<path d="M84.838 31.6478C84.838 32.2949 84.7301 32.8941 84.5144 33.4454C84.2987 33.9966 83.9956 34.4737 83.6052 34.8764C83.2147 35.2794 82.7448 35.5937 82.1956 35.8194C81.6458 36.0454 81.0376 36.1582 80.3705 36.1582C79.703 36.1582 79.0938 36.0454 78.5425 35.8194C77.9913 35.5937 77.5189 35.2794 77.1264 34.8764C76.734 34.4737 76.4299 33.9966 76.2142 33.4454C75.9985 32.8941 75.8906 32.2949 75.8906 31.6478C75.8906 31.0009 75.9985 30.4018 76.2142 29.8505C76.4299 29.2993 76.734 28.8222 77.1264 28.4192C77.5189 28.0165 77.9913 27.7022 78.5425 27.4762C79.0938 27.2505 79.703 27.1374 80.3705 27.1374C81.0376 27.1374 81.6458 27.2515 82.1956 27.4792C82.7448 27.7072 83.2147 28.0215 83.6052 28.4222C83.9956 28.8231 84.2987 29.2993 84.5144 29.8505C84.7301 30.4018 84.838 31.0009 84.838 31.6478ZM83.1538 31.6478C83.1538 31.1637 83.0894 30.7293 82.9615 30.3448C82.8332 29.9604 82.649 29.6338 82.4088 29.3652C82.1686 29.0968 81.877 28.8913 81.533 28.7488C81.1894 28.6064 80.8015 28.5353 80.3705 28.5353C79.9391 28.5353 79.5507 28.6064 79.2046 28.7488C78.8586 28.8913 78.565 29.0968 78.3228 29.3652C78.0807 29.6338 77.8944 29.9604 77.7641 30.3448C77.6343 30.7293 77.5688 31.1637 77.5688 31.6478C77.5688 32.1322 77.6343 32.5663 77.7641 32.9511C77.8944 33.3355 78.0807 33.6611 78.3228 33.9275C78.565 34.1941 78.8586 34.3986 79.2046 34.5409C79.5507 34.6835 79.9391 34.7544 80.3705 34.7544C80.8015 34.7544 81.1894 34.6835 81.533 34.5409C81.877 34.3986 82.1686 34.1941 82.4088 33.9275C82.649 33.6611 82.8332 33.3355 82.9615 32.9511C83.0894 32.5663 83.1538 32.1322 83.1538 31.6478ZM79.8822 25.8864C79.8822 25.9962 79.8597 26.1001 79.8148 26.1977C79.7704 26.2953 79.7089 26.3807 79.6321 26.4539C79.5547 26.5273 79.4653 26.5842 79.3634 26.6249C79.2616 26.6656 79.1537 26.6858 79.0399 26.6858C78.934 26.6858 78.8331 26.6656 78.7378 26.6249C78.6424 26.5842 78.5575 26.5273 78.4846 26.4539C78.4112 26.3807 78.3533 26.2953 78.3103 26.1977C78.2679 26.1001 78.2464 25.9962 78.2464 25.8864C78.2464 25.7765 78.2679 25.6717 78.3103 25.5721C78.3533 25.4724 78.4112 25.3848 78.4846 25.3097C78.5575 25.2343 78.6424 25.1743 78.7378 25.1297C78.8331 25.0847 78.934 25.0625 79.0399 25.0625C79.1537 25.0625 79.2616 25.0847 79.3634 25.1297C79.4653 25.1743 79.5547 25.2343 79.6321 25.3097C79.7089 25.3848 79.7704 25.4724 79.8148 25.5721C79.8597 25.6717 79.8822 25.7765 79.8822 25.8864ZM82.5186 25.8864C82.5186 25.9962 82.4977 26.1001 82.4547 26.1977C82.4118 26.2953 82.3539 26.3807 82.281 26.4539C82.2076 26.5273 82.1212 26.5842 82.0213 26.6249C81.9214 26.6656 81.8146 26.6858 81.7007 26.6858C81.5909 26.6858 81.4865 26.6656 81.3867 26.6249C81.2868 26.5842 81.1994 26.5273 81.124 26.4539C81.0486 26.3807 80.9897 26.2953 80.9473 26.1977C80.9043 26.1001 80.8834 25.9962 80.8834 25.8864C80.8834 25.7765 80.9043 25.6717 80.9473 25.5721C80.9897 25.4724 81.0486 25.3848 81.124 25.3097C81.1994 25.2343 81.2868 25.1743 81.3867 25.1297C81.4865 25.0847 81.5909 25.0625 81.7007 25.0625C81.8146 25.0625 81.9214 25.0847 82.0213 25.1297C82.1212 25.1743 82.2076 25.2343 82.281 25.3097C82.3539 25.3848 82.4118 25.4724 82.4547 25.5721C82.4977 25.6717 82.5186 25.7765 82.5186 25.8864Z" fill="#152842"/>
<path d="M90.985 31.0213C90.9445 31.0865 90.9016 31.1324 90.8571 31.1587C90.8122 31.1854 90.7553 31.1983 90.6859 31.1983C90.613 31.1983 90.5346 31.1781 90.4512 31.1374C90.3678 31.0967 90.2709 31.051 90.1611 31.0001C90.0512 30.9492 89.9264 30.9035 89.7861 30.8628C89.6453 30.8221 89.4795 30.8016 89.2883 30.8016C88.9912 30.8016 88.7575 30.8648 88.5867 30.9909C88.4154 31.117 88.3301 31.2817 88.3301 31.4852C88.3301 31.6195 88.374 31.7324 88.4614 31.824C88.5488 31.9156 88.6646 31.996 88.8094 32.0652C88.9537 32.1343 89.1175 32.1962 89.3007 32.2512C89.4835 32.3061 89.6707 32.3663 89.862 32.4312C90.0532 32.4963 90.2405 32.5707 90.4237 32.6541C90.607 32.7375 90.7703 32.8434 90.9151 32.9714C91.0594 33.0995 91.1752 33.2533 91.2631 33.4323C91.3505 33.6113 91.3939 33.827 91.3939 34.0792C91.3939 34.3803 91.339 34.6582 91.2291 34.9123C91.1193 35.1667 90.9585 35.3864 90.7473 35.5714C90.5356 35.7567 90.2739 35.901 89.9629 36.0048C89.6518 36.1084 89.2948 36.1604 88.8918 36.1604C88.6761 36.1604 88.4654 36.1411 88.2602 36.1024C88.0544 36.0637 87.8572 36.0098 87.668 35.9407C87.4787 35.8715 87.304 35.7901 87.1432 35.6965C86.9824 35.6029 86.8411 35.5013 86.7188 35.3914L87.0668 34.8177C87.1117 34.7485 87.1646 34.6956 87.2256 34.6589C87.2865 34.6225 87.3639 34.604 87.4572 34.604C87.5511 34.604 87.6395 34.6307 87.7229 34.6834C87.8063 34.7363 87.9031 34.7932 88.013 34.8544C88.1228 34.9153 88.2517 34.9725 88.4005 35.0252C88.5488 35.0781 88.737 35.1045 88.9652 35.1045C89.144 35.1045 89.2978 35.0831 89.4256 35.0404C89.5539 34.9977 89.6598 34.9418 89.7431 34.8726C89.8265 34.8035 89.8875 34.7231 89.9264 34.6314C89.9648 34.5401 89.9843 34.4454 89.9843 34.3478C89.9843 34.2013 89.9404 34.0812 89.853 33.9876C89.7656 33.8942 89.6493 33.8128 89.505 33.7434C89.3607 33.6742 89.1959 33.6123 89.0106 33.5574C88.8254 33.5025 88.6361 33.4423 88.4429 33.3774C88.2497 33.3122 88.0604 33.2361 87.8757 33.1485C87.6904 33.0611 87.5257 32.95 87.3814 32.8159C87.2365 32.6816 87.1207 32.5168 87.0333 32.3213C86.9459 32.1261 86.902 31.8902 86.902 31.6135C86.902 31.3571 86.9529 31.113 87.0548 30.881C87.1562 30.6491 87.306 30.4469 87.5032 30.2739C87.7004 30.1008 87.9466 29.9625 88.2417 29.8587C88.5368 29.7551 88.8773 29.7031 89.2638 29.7031C89.6952 29.7031 90.0882 29.7743 90.4422 29.9166C90.7957 30.0591 91.0908 30.2464 91.327 30.4783L90.985 31.0213Z" fill="#152842"/>
<path d="M95.8783 36.1588C95.3371 36.1588 94.9201 36.0053 94.627 35.698C94.3339 35.3909 94.1876 34.9667 94.1876 34.4254V30.9284H93.553C93.4716 30.9284 93.4012 30.902 93.3423 30.849C93.2834 30.7961 93.2539 30.7167 93.2539 30.6109V30.0129L94.261 29.8481L94.5781 28.1392C94.5946 28.0578 94.632 27.9947 94.691 27.95C94.7499 27.9053 94.8243 27.8828 94.9137 27.8828H95.6951V29.8541H97.3429V30.9284H95.6951V34.3218C95.6951 34.5171 95.744 34.6696 95.8414 34.7795C95.9393 34.8893 96.0696 34.9442 96.2324 34.9442C96.3257 34.9442 96.4041 34.9333 96.467 34.9108C96.53 34.8883 96.5849 34.8651 96.6318 34.8406C96.6788 34.8162 96.7202 34.7927 96.7572 34.7705C96.7936 34.748 96.8301 34.7368 96.867 34.7368C96.9114 34.7368 96.9484 34.748 96.9769 34.7705C97.0053 34.7927 97.0358 34.8264 97.0682 34.8711L97.5201 35.6036C97.3004 35.7866 97.0478 35.9249 96.7631 36.0185C96.4785 36.1122 96.1834 36.1588 95.8783 36.1588Z" fill="#152842"/>
<path d="M102.355 29.7031C102.749 29.7031 103.113 29.7663 103.444 29.8924C103.776 30.0184 104.061 30.2027 104.301 30.4446C104.542 30.6868 104.729 30.9839 104.863 31.3357C104.998 31.6877 105.064 32.0894 105.064 32.541C105.064 32.6551 105.059 32.7497 105.049 32.8249C105.039 32.9003 105.021 32.9592 104.995 33.0019C104.968 33.0446 104.932 33.0751 104.888 33.0935C104.843 33.1118 104.786 33.121 104.716 33.121H100.847C100.892 33.7639 101.065 34.236 101.366 34.5368C101.667 34.8382 102.066 34.9885 102.562 34.9885C102.807 34.9885 103.017 34.9602 103.194 34.9031C103.371 34.8461 103.526 34.7832 103.658 34.7138C103.79 34.6447 103.906 34.5818 104.005 34.5248C104.105 34.4677 104.202 34.4392 104.295 34.4392C104.356 34.4392 104.409 34.4514 104.454 34.4759C104.499 34.5004 104.538 34.5348 104.57 34.5798L105.01 35.129C104.843 35.3243 104.656 35.488 104.448 35.6203C104.241 35.7524 104.024 35.8583 103.798 35.9377C103.572 36.0171 103.342 36.0727 103.109 36.1054C102.874 36.1379 102.648 36.1544 102.428 36.1544C101.993 36.1544 101.588 36.082 101.213 35.9377C100.839 35.7934 100.514 35.5797 100.237 35.2968C99.9599 35.0139 99.7427 34.6641 99.5839 34.247C99.4251 33.83 99.3457 33.3467 99.3457 32.7974C99.3457 32.3703 99.4151 31.9686 99.5534 31.5921C99.6917 31.2158 99.89 30.8883 100.148 30.6094C100.407 30.3308 100.722 30.1101 101.094 29.9473C101.467 29.7845 101.887 29.7031 102.355 29.7031ZM102.385 30.7834C101.946 30.7834 101.602 30.9075 101.353 31.1557C101.105 31.4038 100.947 31.7558 100.878 32.2115H103.71C103.71 32.0162 103.683 31.8322 103.63 31.6592C103.577 31.4862 103.496 31.3347 103.386 31.2046C103.276 31.0743 103.138 30.9717 102.971 30.8963C102.804 30.8211 102.609 30.7834 102.385 30.7834Z" fill="#152842"/>
<path d="M107.512 36.0575V29.7955H108.397C108.551 29.7955 108.659 29.824 108.721 29.8809C108.781 29.9381 108.822 30.0357 108.842 30.174L108.934 30.9307C109.158 30.5443 109.42 30.2392 109.721 30.0152C110.022 29.7915 110.36 29.6797 110.734 29.6797C111.043 29.6797 111.3 29.7508 111.503 29.8931L111.308 31.0224C111.296 31.0955 111.27 31.1474 111.229 31.1779C111.188 31.2084 111.133 31.2236 111.064 31.2236C111.003 31.2236 110.92 31.2096 110.814 31.1809C110.708 31.1527 110.568 31.1382 110.393 31.1382C110.079 31.1382 109.811 31.2248 109.587 31.3976C109.363 31.5706 109.174 31.824 109.02 32.1576V36.0575H107.512Z" fill="#152842"/>
<path d="M113.719 36.0575V29.7955H114.604C114.758 29.7955 114.866 29.824 114.928 29.8809C114.989 29.9381 115.029 30.0357 115.049 30.174L115.141 30.9307C115.365 30.5443 115.627 30.2392 115.928 30.0152C116.229 29.7915 116.567 29.6797 116.941 29.6797C117.25 29.6797 117.507 29.7508 117.71 29.8931L117.515 31.0224C117.503 31.0955 117.477 31.1474 117.436 31.1779C117.395 31.2084 117.34 31.2236 117.271 31.2236C117.21 31.2236 117.127 31.2096 117.021 31.1809C116.915 31.1527 116.775 31.1382 116.6 31.1382C116.286 31.1382 116.018 31.2248 115.794 31.3976C115.57 31.5706 115.381 31.824 115.227 32.1576V36.0575H113.719Z" fill="#152842"/>
<path d="M122.513 29.7031C122.907 29.7031 123.271 29.7663 123.602 29.8924C123.934 30.0184 124.22 30.2027 124.46 30.4446C124.7 30.6868 124.887 30.9839 125.021 31.3357C125.156 31.6877 125.223 32.0894 125.223 32.541C125.223 32.6551 125.218 32.7497 125.208 32.8249C125.197 32.9003 125.179 32.9592 125.153 33.0019C125.126 33.0446 125.09 33.0751 125.046 33.0935C125.001 33.1118 124.944 33.121 124.875 33.121H121.005C121.05 33.7639 121.223 34.236 121.524 34.5368C121.825 34.8382 122.224 34.9885 122.721 34.9885C122.965 34.9885 123.175 34.9602 123.352 34.9031C123.529 34.8461 123.684 34.7832 123.816 34.7138C123.948 34.6447 124.064 34.5818 124.164 34.5248C124.263 34.4677 124.36 34.4392 124.454 34.4392C124.515 34.4392 124.568 34.4514 124.612 34.4759C124.657 34.5004 124.696 34.5348 124.728 34.5798L125.168 35.129C125.001 35.3243 124.814 35.488 124.606 35.6203C124.399 35.7524 124.182 35.8583 123.956 35.9377C123.731 36.0171 123.5 36.0727 123.267 36.1054C123.033 36.1379 122.806 36.1544 122.586 36.1544C122.151 36.1544 121.746 36.082 121.371 35.9377C120.997 35.7934 120.672 35.5797 120.395 35.2968C120.118 35.0139 119.901 34.6641 119.742 34.247C119.583 33.83 119.504 33.3467 119.504 32.7974C119.504 32.3703 119.573 31.9686 119.712 31.5921C119.85 31.2158 120.048 30.8883 120.306 30.6094C120.565 30.3308 120.88 30.1101 121.253 29.9473C121.625 29.7845 122.045 29.7031 122.513 29.7031ZM122.543 30.7834C122.104 30.7834 121.76 30.9075 121.512 31.1557C121.264 31.4038 121.105 31.7558 121.036 32.2115H123.868C123.868 32.0162 123.842 31.8322 123.789 31.6592C123.736 31.4862 123.654 31.3347 123.544 31.2046C123.435 31.0743 123.296 30.9717 123.129 30.8963C122.962 30.8211 122.767 30.7834 122.543 30.7834Z" fill="#152842"/>
<path d="M129.501 27.9723C129.501 28.1023 129.474 28.2244 129.422 28.3383C129.369 28.4524 129.298 28.552 129.211 28.6374C129.123 28.7227 129.021 28.7911 128.903 28.8418C128.785 28.8928 128.659 28.9182 128.524 28.9182C128.394 28.9182 128.271 28.8928 128.155 28.8418C128.039 28.7911 127.938 28.7227 127.853 28.6374C127.768 28.552 127.699 28.4524 127.649 28.3383C127.598 28.2244 127.572 28.1023 127.572 27.9723C127.572 27.8379 127.598 27.7119 127.649 27.5938C127.699 27.4757 127.768 27.3741 127.853 27.2887C127.938 27.203 128.039 27.1351 128.155 27.0842C128.271 27.0333 128.394 27.0078 128.524 27.0078C128.659 27.0078 128.785 27.0333 128.903 27.0842C129.021 27.1351 129.123 27.203 129.211 27.2887C129.298 27.3741 129.369 27.4757 129.422 27.5938C129.474 27.7119 129.501 27.8379 129.501 27.9723ZM129.275 29.797V36.059H127.768V29.797H129.275Z" fill="#152842"/>
<path d="M136.599 31.1252C136.554 31.1821 136.51 31.2268 136.468 31.2595C136.425 31.292 136.363 31.3082 136.282 31.3082C136.204 31.3082 136.129 31.285 136.056 31.238C135.983 31.1914 135.895 31.1384 135.793 31.0795C135.692 31.0203 135.571 30.9674 135.43 30.9207C135.29 30.874 135.116 30.8506 134.909 30.8506C134.644 30.8506 134.412 30.8985 134.213 30.9939C134.013 31.0895 133.848 31.2268 133.715 31.4058C133.583 31.5851 133.484 31.8018 133.419 32.0559C133.354 32.3103 133.322 32.5982 133.322 32.9195C133.322 33.2533 133.357 33.5502 133.428 33.8106C133.5 34.071 133.602 34.2897 133.737 34.4667C133.871 34.6437 134.033 34.778 134.225 34.8696C134.416 34.961 134.631 35.0069 134.872 35.0069C135.112 35.0069 135.306 34.9775 135.455 34.9183C135.603 34.8594 135.728 34.7942 135.83 34.7231C135.932 34.6519 136.02 34.5868 136.095 34.5278C136.171 34.4689 136.255 34.4392 136.349 34.4392C136.471 34.4392 136.562 34.4861 136.623 34.5798L137.057 35.129C136.89 35.3243 136.709 35.488 136.513 35.6203C136.318 35.7524 136.116 35.8583 135.906 35.9377C135.697 36.0171 135.48 36.0727 135.256 36.1054C135.032 36.1379 134.811 36.1544 134.591 36.1544C134.205 36.1544 133.84 36.082 133.499 35.9377C133.157 35.7934 132.858 35.5827 132.604 35.306C132.35 35.0294 132.149 34.6906 132 34.2897C131.852 33.8889 131.777 33.4323 131.777 32.9195C131.777 32.4599 131.843 32.0337 131.976 31.641C132.108 31.2483 132.302 30.9085 132.559 30.6216C132.815 30.3348 133.133 30.1101 133.51 29.9473C133.889 29.7845 134.324 29.7031 134.817 29.7031C135.285 29.7031 135.695 29.7785 136.047 29.9288C136.399 30.0796 136.715 30.2951 136.996 30.5759L136.599 31.1252Z" fill="#152842"/>
<path d="M139.242 36.0616V26.9922H140.75V30.4772C140.994 30.2453 141.262 30.058 141.556 29.9155C141.849 29.7732 142.192 29.702 142.587 29.702C142.929 29.702 143.232 29.7599 143.496 29.876C143.761 29.9919 143.982 30.1546 144.159 30.3641C144.336 30.5738 144.47 30.824 144.561 31.1148C144.653 31.406 144.699 31.7263 144.699 32.0763V36.0616H143.191V32.0763C143.191 31.6938 143.103 31.3977 142.926 31.1882C142.749 30.9785 142.483 30.8739 142.129 30.8739C141.869 30.8739 141.625 30.9328 141.397 31.0509C141.169 31.1688 140.953 31.3296 140.75 31.533V36.0616H139.242Z" fill="#152842"/>
<path d="M48.0983 36.7877H44.7127V17.7413H48.0983V36.7877ZM39.6385 36.7877H36.253V17.7413H39.6385V36.7877ZM18.8802 36.7877H15.4937V17.7413H18.8802V36.7877ZM10.4184 36.7877H7.03288V17.7413H10.4184V36.7877ZM55.1432 9.90182L55.1835 9.80112V7.3229L54.2641 7.32793L53.3457 7.96436V8.62193L29.2493 2.77227V1.15L27.5887 0L25.9282 1.15V2.77227L1.83676 8.62092V7.96436L0.918381 7.32793L0 7.3229V9.80112L0.0352448 9.90182L1.97774 12.7003L1.94048 37.1119L0 38.1572V40H25.7248C25.5365 38.9286 24.5275 32.6993 24.9846 24.8497C24.9846 24.8497 24.4227 24.2727 24.4147 23.6071C24.0491 23.6625 24.168 23.6685 23.7772 23.8075C23.453 23.9223 23.0834 24.0894 22.8176 24.1982C22.45 24.3472 21.869 24.2294 21.7018 24.0028C21.6213 23.8951 21.578 23.8165 21.5598 23.7551C21.4158 23.4913 21.3242 23.0492 21.3242 22.3926C21.3242 21.9788 21.4048 21.5357 21.5095 21.1329C21.2235 20.9043 20.9798 20.5508 20.87 20.0393C20.6596 19.0655 20.6354 18.0988 20.6354 18.0988C20.6354 18.0988 21.2759 19.0141 21.6756 19.8802C21.7502 19.7875 21.8629 19.7281 21.9908 19.7281C22.1177 19.7281 22.2295 19.7865 22.305 19.8782C22.7038 19.0131 23.3422 18.0988 23.3422 18.0988C23.3422 18.0988 23.3362 19.0262 23.1267 19.999C23.016 20.5116 22.7541 20.9053 22.4681 21.1339C22.5729 21.5357 22.6544 21.9788 22.6544 22.3926C22.6544 22.6031 22.6444 22.7894 22.6273 22.9576C22.6273 22.9576 23.2123 23.0049 23.7219 22.6303C24.2697 22.2819 24.4096 22.0986 24.4096 22.0986C24.4096 22.0986 24.5828 21.4148 24.7691 20.866C25.0793 19.9527 25.2183 19.0323 25.8668 18.4502C26.194 18.1552 26.6482 18.1048 27.0893 18.1048C27.6179 17.9538 27.5756 17.1099 27.5162 16.6759C27.2151 16.4523 27.056 16.0083 27.0087 15.4725C26.9986 15.3598 26.9996 15.254 27.0097 15.1553H27.0087L26.6079 14.4635C26.6079 14.4635 26.7116 13.955 26.912 13.6781C27.189 13.2954 27.2846 13.2581 27.2846 13.2581C27.2846 13.2581 27.4246 12.7617 27.3279 12.2693C27.189 11.5664 26.5566 10.8695 26.5566 10.8695L28.35 10.5564C28.35 10.5564 29.4356 11.3449 29.6732 12.7728C29.8565 13.8724 29.4235 15.2913 29.4607 15.5068C29.5433 15.9337 30.1113 16.3577 30.0921 16.7343C30.072 17.1311 29.8283 17.2328 29.8283 17.2328C29.8283 17.2328 30.2351 17.1502 30.501 17.1401C31.1797 17.1129 31.6359 17.1442 32.0487 17.0465L32.6157 13.2843C32.4767 13.0759 32.3257 12.4838 32.4495 11.8937C32.5321 11.5009 32.7587 11.4617 32.8936 11.4385L33.4495 7.75289L33.2964 6.89291L34.0325 4.9212L34.1423 4.93732L34.2541 7.04496L33.8825 7.77302L33.241 12.0256C33.3941 12.4294 33.5764 12.9742 33.5904 13.374C33.6186 14.1856 33.7606 16.1966 33.6035 16.8703C33.4464 17.5439 33.3538 17.9105 33.241 18.27C33.1856 18.4492 32.7909 18.6557 32.4082 18.8178C32.1011 20.0473 31.1434 24.2546 30.9853 29.6027C30.8403 34.4897 31.4798 39.0726 31.6187 40H55.1815V38.1572L53.2007 37.1119V12.7003L55.1432 9.90182Z" fill="#152842"/>
</g>
<defs>
<clipPath id="clip0_667_371">
<rect width="144.937" height="40" fill="white"/>
</clipPath>
</defs>
</svg>
