<svg width="310" height="82" viewBox="0 0 310 82" fill="none" xmlns="http://www.w3.org/2000/svg">
<path d="M26.3583 81.1096V60.7475C26.3577 60.7038 26.3814 60.6634 26.4197 60.6425L52.5653 45.5329C52.6037 45.512 52.6273 45.4716 52.6268 45.4279V39.6376C52.6273 39.5941 52.6043 39.5537 52.5666 39.5319C52.529 39.5101 52.4825 39.5104 52.4451 39.5326L26.54 54.5014C26.5026 54.5236 26.4561 54.5239 26.4184 54.5021C26.3807 54.4803 26.3578 54.4399 26.3583 54.3963V48.6035C26.3583 48.56 26.3818 48.5198 26.4197 48.4985L52.5653 33.3889C52.6025 33.3669 52.6257 33.3272 52.6268 33.2839V27.4936C52.6258 27.4508 52.6025 27.4115 52.5654 27.3901C52.5283 27.3686 52.4827 27.3681 52.4451 27.3886L26.54 42.3574C26.5026 42.3796 26.4561 42.3799 26.4184 42.3581C26.3807 42.3363 26.3578 42.2959 26.3583 42.2524V36.4621C26.3577 36.4184 26.3814 36.378 26.4197 36.3571L52.5653 21.2552C52.6033 21.2339 52.6268 21.1937 52.6268 21.1502V15.2805C52.6243 15.1948 52.5792 15.1159 52.5065 15.0705L26.4786 0.0326532C26.4043 -0.0108844 26.3123 -0.0108844 26.238 0.0326532L21.2868 2.89323C21.2488 2.91452 21.2253 2.95467 21.2253 2.99822C21.2253 3.04177 21.2488 3.08192 21.2868 3.10322L47.1919 18.0719C47.2285 18.0942 47.2509 18.134 47.2509 18.1769C47.2509 18.2198 47.2285 18.2596 47.1919 18.2819L42.2407 21.1425C42.1648 21.1835 42.0734 21.1835 41.9976 21.1425L15.9722 6.10465C15.893 6.0589 15.7955 6.0589 15.7163 6.10465L10.7804 8.96266C10.7425 8.98395 10.719 9.02411 10.719 9.06766C10.719 9.11121 10.7425 9.15136 10.7804 9.17266L36.6804 24.1439C36.7184 24.1652 36.7419 24.2054 36.7419 24.2489C36.7419 24.2925 36.7184 24.3326 36.6804 24.3539L31.7317 27.2145C31.6526 27.2602 31.555 27.2602 31.4759 27.2145L5.4633 12.1741C5.38413 12.1283 5.2866 12.1283 5.20743 12.1741L0.0898535 15.1397V66.0717C0.0892943 66.1154 0.112933 66.1558 0.151275 66.1767L5.16136 69.0731C5.19876 69.0954 5.24526 69.0956 5.28293 69.0739C5.3206 69.0521 5.34359 69.0117 5.34304 68.9681V18.3869C5.34249 18.3434 5.36548 18.303 5.40316 18.2812C5.44083 18.2594 5.48731 18.2597 5.52471 18.2819L10.5374 21.1784C10.5743 21.2003 10.5967 21.2403 10.5962 21.2834V72.1437C10.5962 72.1872 10.6197 72.2274 10.6576 72.2487L15.6677 75.1451C15.7059 75.1672 15.7529 75.1671 15.791 75.1448C15.8291 75.1226 15.8523 75.0817 15.8519 75.0375V24.4589C15.8514 24.4154 15.8744 24.375 15.9121 24.3532C15.9497 24.3314 15.9962 24.3317 16.0336 24.3539L21.0437 27.2478C21.0817 27.2691 21.1051 27.3093 21.1051 27.3528V78.2157C21.1056 78.2584 21.1278 78.298 21.164 78.3207L26.1894 81.2146C26.2258 81.2307 26.2678 81.2278 26.3016 81.2067C26.3354 81.1857 26.3566 81.1494 26.3583 81.1096Z" fill="#300D4F"/>
<path d="M79.2559 65.3643V16.1325C79.2544 15.8842 79.3531 15.646 79.5294 15.4724C79.7057 15.2988 79.9445 15.2047 80.191 15.2113H94.7283C103.946 15.2113 109.671 20.613 109.671 29.6615C109.671 38.71 103.174 44.4715 94.6466 44.4715H86.8848C86.6202 44.4714 86.4037 44.6836 86.3968 44.9499V65.4441C86.3983 65.6919 86.2999 65.9297 86.1242 66.1032C85.9485 66.2767 85.7104 66.3711 85.4643 66.3651H80.1859C79.672 66.3103 79.2759 65.8841 79.2559 65.3643ZM94.7283 38.386C99.6005 38.386 102.362 34.3041 102.362 29.6615C102.362 24.8569 99.8458 21.2149 94.7283 21.2149H86.8848C86.6248 21.223 86.4162 21.4341 86.4096 21.6959V37.8998C86.4152 38.1671 86.632 38.3809 86.8976 38.3808L94.7283 38.386Z" fill="#300D4F"/>
<path d="M140.081 15.2113H145.374C145.621 15.2047 145.86 15.2984 146.037 15.4712C146.214 15.6441 146.313 15.8813 146.311 16.1284V53.1616C146.311 61.5716 139.43 66.7113 131.368 66.7113C123.468 66.7113 116.586 61.5306 116.586 53.1616V16.1284C116.585 15.8817 116.684 15.6449 116.86 15.4722C117.036 15.2994 117.275 15.2054 117.522 15.2113H122.735C122.982 15.2047 123.221 15.2984 123.398 15.4712C123.575 15.6441 123.674 15.8813 123.672 16.1284V53.031C123.672 57.6124 127.172 60.5216 131.327 60.5216C135.482 60.5216 139.064 57.6124 139.064 53.031V16.1541C139.128 15.6343 139.558 15.2364 140.081 15.2113Z" fill="#300D4F"/>
<path d="M164.568 40.273C159.505 36.8833 156.117 33.099 156.117 27.3931C156.117 19.2197 163.016 14.5156 170.856 14.5156C178.243 14.5156 184.727 18.6151 185.104 28.9893C185.113 29.5206 184.696 29.9624 184.164 29.986H179.307C178.81 29.9896 178.397 29.6046 178.367 29.1097C178.04 23.4729 174.652 20.775 170.404 20.775C166.319 20.775 163.258 23.168 163.258 26.9959C163.258 30.3037 165.259 32.0997 170.486 35.7662L177.794 41.0289C182.857 44.6979 185.713 48.0082 185.713 53.2299C185.713 61.6851 178.731 66.7069 170.524 66.7069C162.767 66.7069 156.653 62.4819 155.991 52.1154C155.972 51.8558 156.063 51.6003 156.242 51.4105C156.42 51.2208 156.67 51.1141 156.931 51.1161H161.87C162.362 51.1274 162.766 51.5063 162.808 51.995C163.258 57.7752 166.728 60.4501 170.812 60.4501C174.732 60.4501 178.405 58.3363 178.405 53.3913C178.405 50.3167 177.018 48.8076 173.011 46.1353L164.568 40.273Z" fill="#300D4F"/>
<path d="M219.629 65.066V43.6608C219.624 43.3951 219.405 43.1826 219.137 43.1826H203.442C203.174 43.1826 202.956 43.3951 202.95 43.6608V65.066C202.951 65.3124 202.851 65.5485 202.673 65.7205C202.495 65.8925 202.255 65.9857 202.006 65.9788H196.68C196.431 65.9857 196.191 65.8925 196.013 65.7205C195.835 65.5485 195.735 65.3124 195.736 65.066V16.127C195.734 15.8802 195.834 15.6434 196.012 15.4708C196.19 15.2982 196.431 15.2047 196.68 15.2113H202.006C202.255 15.2047 202.496 15.2982 202.674 15.4708C202.852 15.6434 202.951 15.8802 202.95 16.127V36.5811C202.957 36.8458 203.175 37.0567 203.442 37.0566H219.137C219.404 37.0567 219.622 36.8458 219.629 36.5811V16.127C219.628 15.8802 219.727 15.6434 219.905 15.4708C220.083 15.2982 220.324 15.2047 220.573 15.2113H225.9C226.148 15.2047 226.389 15.2982 226.567 15.4708C226.745 15.6434 226.845 15.8802 226.843 16.127V65.1044C226.845 65.3511 226.745 65.5879 226.567 65.7605C226.389 65.9331 226.148 66.0266 225.9 66.02H220.573C220.32 66.0177 220.078 65.916 219.901 65.737C219.724 65.5581 219.626 65.3167 219.629 65.066Z" fill="#300D4F"/>
<path d="M240.325 65.1052V16.1277C240.323 15.8812 240.421 15.6446 240.597 15.4719C240.772 15.2993 241.01 15.2054 241.256 15.2113H267.042C267.288 15.2047 267.526 15.2983 267.702 15.471C267.878 15.6437 267.977 15.8807 267.975 16.1277V20.388C267.977 20.635 267.878 20.872 267.702 21.0447C267.526 21.2174 267.288 21.311 267.042 21.3041H247.946C247.682 21.3054 247.466 21.5172 247.459 21.7826V36.7923C247.465 37.0583 247.681 37.2709 247.946 37.2708H261.083C261.329 37.2646 261.566 37.3585 261.742 37.5311C261.917 37.7038 262.016 37.9403 262.014 38.1869V42.4472C262.016 42.6937 261.917 42.9303 261.742 43.103C261.566 43.2756 261.329 43.3695 261.083 43.3633H247.946C247.682 43.3646 247.466 43.5764 247.459 43.8418V59.4503C247.466 59.7156 247.682 59.9275 247.946 59.9288H267.042C267.549 59.9286 267.964 60.3356 267.975 60.8448V65.1052C267.963 65.6134 267.548 66.0188 267.042 66.0186H241.256C241.008 66.0324 240.767 65.9413 240.59 65.7676C240.413 65.5939 240.316 65.3535 240.325 65.1052Z" fill="#300D4F"/>
<path d="M301.328 65.3213L293.457 43.9246C293.389 43.734 293.208 43.6064 293.005 43.606H285.706C285.439 43.6059 285.221 43.8179 285.214 44.084V65.3213C285.214 65.5689 285.114 65.8063 284.937 65.9792C284.759 66.1521 284.518 66.2457 284.269 66.2388H278.939C278.691 66.2458 278.451 66.152 278.273 65.979C278.096 65.8061 277.996 65.5687 277.998 65.3213V16.1315C277.996 15.8839 278.095 15.6463 278.273 15.4729C278.45 15.2995 278.691 15.2052 278.939 15.2112H293.539C302.479 15.2112 308.629 20.8498 308.629 29.2096C308.629 34.7682 305.675 39.4068 300.262 42.1257C300.207 42.1444 300.162 42.1856 300.139 42.239C300.116 42.2923 300.117 42.353 300.141 42.4058L309.039 65.0798C309.155 65.3733 309.116 65.7053 308.934 65.9638C308.753 66.2223 308.453 66.3729 308.136 66.365H302.6C302.026 66.2526 301.548 65.8604 301.328 65.3213ZM292.964 37.7672C297.27 37.7672 301.124 34.7682 301.124 29.4897C301.124 24.7688 298.049 21.2095 292.964 21.2095H285.706C285.46 21.2081 285.259 21.4041 285.255 21.649V37.2455C285.261 37.5126 285.48 37.7261 285.748 37.7261L292.964 37.7672Z" fill="#300D4F"/>
</svg>
