<?xml version="1.0" standalone="no"?>
<!DOCTYPE svg PUBLIC "-//W3C//DTD SVG 20010904//EN"
 "http://www.w3.org/TR/2001/REC-SVG-20010904/DTD/svg10.dtd">
<svg version="1.0" xmlns="http://www.w3.org/2000/svg"
 width="698.000000pt" height="698.000000pt" viewBox="0 0 698.000000 698.000000"
 preserveAspectRatio="xMidYMid meet">
<metadata>
Created by potrace 1.11, written by Tariq Selinger 2001-2013
</metadata>
<g transform="translate(0.000000,698.000000) scale(0.100000,-0.100000)"
fill="#000000" stroke="none">
<path d="M3240 3488 l-3233 -3233 252 -3 252 -2 1534 1535 1534 1534 -1 -935
c0 -514 1 -936 4 -939 2 -2 150 -4 329 -4 331 0 362 0 376 -2 4 -1 29 -1 55 0
l47 1 0 323 c0 177 1 356 1 398 l0 77 142 140 141 141 51 -77 c89 -134 157
-242 177 -280 7 -12 16 -22 21 -22 4 0 8 -4 8 -10 0 -5 33 -60 73 -122 183
-280 207 -319 207 -328 0 -6 4 -10 9 -10 5 0 14 -13 21 -30 7 -16 15 -30 19
-30 3 0 29 -39 56 -85 l50 -85 55 0 c63 -1 580 -1 718 0 l94 0 -46 65 c-25 36
-46 68 -46 71 0 3 -9 14 -20 26 -11 12 -20 28 -20 35 0 7 -3 13 -7 13 -5 0
-21 21 -38 48 -16 26 -33 52 -38 57 -13 15 -427 627 -442 653 -5 9 -13 19 -16
22 -5 5 -160 231 -184 269 -23 37 -50 76 -55 81 -10 10 -50 69 -50 75 0 2 -16
25 -35 51 -19 25 -35 50 -35 56 0 10 100 140 125 163 6 6 37 44 70 85 33 41
64 80 70 85 6 6 29 33 50 60 22 28 44 55 50 61 5 6 26 31 45 54 31 38 58 71
128 156 27 32 83 100 176 214 48 58 94 114 104 125 55 66 102 125 100 126 -11
5 -854 3 -858 -2 -3 -3 -21 -26 -41 -50 -20 -24 -73 -89 -118 -144 -45 -55
-89 -110 -99 -121 -10 -12 -43 -53 -73 -90 -29 -38 -56 -71 -59 -74 -9 -8
-163 -199 -180 -223 -8 -12 -32 -39 -52 -62 -21 -22 -38 -43 -38 -46 0 -3 -9
-17 -21 -30 -11 -13 -42 -50 -67 -81 -26 -32 -50 -58 -54 -58 -5 0 -8 -6 -8
-13 0 -14 -54 -70 -61 -63 -2 2 -3 250 -1 550 l2 546 1295 1295 1295 1295
-254 0 -253 0 -3233 -3232z"/>
<path d="M4324 6066 c-35 -35 -320 -306 -374 -356 -32 -29 -276 -261 -354
-335 l-32 -31 0 -466 c0 -515 -5 -478 62 -413 33 32 458 444 633 615 l104 101
1 445 c1 245 -1 451 -4 458 -3 8 -15 3 -36 -18z"/>
<path d="M1455 4139 c-46 -6 -66 -10 -134 -24 -37 -7 -90 -25 -155 -52 -67
-28 -226 -129 -226 -144 0 -5 -4 -9 -10 -9 -11 0 -103 -92 -140 -140 -14 -18
-33 -42 -42 -53 -10 -11 -18 -24 -18 -29 0 -4 -4 -8 -9 -8 -4 0 -8 93 -7 208
l1 207 -187 1 c-103 1 -194 4 -202 7 -8 3 -17 3 -20 0 -3 -4 -72 -6 -154 -5
l-148 0 0 -1634 c-1 -899 3 -1633 7 -1632 15 5 781 772 793 793 6 12 11 67 10
128 -1 121 3 123 59 30 17 -29 34 -53 37 -53 4 0 87 80 186 178 l179 179 -89
43 c-75 36 -105 58 -180 134 -90 90 -162 194 -183 266 -7 21 -10 141 -9 306
l1 271 36 54 c43 63 98 123 154 166 43 33 152 93 176 96 8 2 19 5 24 8 41 25
214 31 306 12 105 -21 233 -85 288 -143 128 -134 183 -246 208 -425 3 -22 7
-42 9 -44 2 -2 150 143 329 322 l326 325 -23 42 c-13 22 -27 49 -33 58 -10 18
-78 113 -105 146 -27 34 -124 128 -160 155 -19 14 -43 33 -53 42 -22 20 -189
119 -200 119 -4 0 -20 6 -35 14 -57 29 -169 63 -237 72 -22 3 -51 7 -65 10
-38 9 -248 10 -305 3z"/>
</g>
</svg>
