<svg width="66" height="52" viewBox="0 0 66 52" fill="none" xmlns="http://www.w3.org/2000/svg">
<g clip-path="url(#clip0_671_441)">
<path d="M1.642 18.313C1.069 18.313 0.526 18.337 0.006 18.376V27.45C5.158 27.613 8.266 30.613 8.266 34.704V34.845C8.266 39.045 5.24 42.066 0.006 42.175V51.589H0.146C10.971 51.589 19.163 44.534 19.163 34.344V34.201C19.162 23.801 11.542 18.313 1.642 18.313ZM21.974 18.82H31.262V51.592H21.974V18.82ZM56.09 18.82L49.976 27.92L43.86 18.82H34.076L45.082 35.206L34.076 51.592H43.86L49.976 42.492L56.09 51.592H65.876L54.868 35.206L65.876 18.82H56.09ZM0 10.07C0.544353 10.0285 1.09007 10.0075 1.636 10.007C4.93045 9.94593 8.19283 10.663 11.158 12.1L15.407 3.282C11.593 0.969 7.31 0 1.708 0C1.125 0 0.558 0.024 0 0.06V10.07Z" fill="black"/>
</g>
<defs>
<clipPath id="clip0_671_441">
<rect width="65.875" height="51.593" fill="white"/>
</clipPath>
</defs>
</svg>
