<svg width="164px" height="40px" viewBox="0 0 164 40" version="1.1" xmlns="http://www.w3.org/2000/svg" xmlns:xlink="http://www.w3.org/1999/xlink"><defs><rect id="path-1" x="0" y="0" width="164" height="40"></rect></defs><g id="UserZoom" stroke="none" stroke-width="1" fill="none" fill-rule="evenodd"><mask id="mask-2" fill="white"><use xlink:href="#path-1"></use></mask><g id="Background"></g><g id="Group-27" mask="url(#mask-2)"><path d="M19.9999352,40 C31.0457474,40 40.0000162,31.0457313 40.0000162,19.999919 C40.0000162,8.95426875 31.0457474,0 19.9999352,0 C8.95428494,0 1.6194332e-05,8.95426875 1.6194332e-05,19.999919 C1.6194332e-05,31.0457313 8.95428494,40 19.9999352,40" id="Fill-1" fill="#FF5036"></path><path d="M19.9917571,18.637166 C19.9917571,18.637166 19.7342672,18.2117409 19.172,17.4815385 C18.6097328,16.7511741 17.7426883,15.7161943 16.523417,14.4969231 L16.523417,14.4969231 C15.1705425,13.1440486 13.3980729,12.4666397 11.6251174,12.4645302 C9.852,12.4625911 8.07823482,13.1357895 6.72276923,14.4846154 C5.40066397,15.800081 4.73345749,17.5278543 4.7114332,19.2710121 C4.68924696,21.0140081 5.31208097,22.7723887 6.57005668,24.1492308 C10.1745911,28.0938462 15.0830931,30.0661538 19.9917571,30.0661538 C24.900583,30.0661538 29.809085,28.0938462 33.4134575,24.1492308 L33.4136194,24.1492308 C34.6715951,22.7723887 35.2944291,21.0140081 35.2722429,19.2710121 C35.2502186,17.5278543 34.5830121,15.8002429 33.2609069,14.4846154 C31.9054413,13.1357895 30.1316761,12.4625911 28.3585587,12.4645302 C26.5856032,12.4666397 24.8129717,13.1440486 23.4602591,14.4969231 C22.2409879,15.7161943 21.3737814,16.7511741 20.8115142,17.4815385 C20.249247,18.2117409 19.9917571,18.637166 19.9917571,18.637166" id="Fill-3" fill="#FFFFFF"></path><path d="M8.7797247,19.4033198 C8.7797247,20.9134413 10.0038543,22.1377328 11.5139757,22.1377328 C13.0240972,22.1377328 14.2483887,20.9134413 14.2483887,19.4033198 C14.2483887,17.8931984 13.0240972,16.6690688 11.5139757,16.6690688 C10.0038543,16.6690688 8.7797247,17.8931984 8.7797247,19.4033198" id="Fill-5" fill="#000000"></path><path d="M19.9917571,18.637166 C17.877587,20.751336 17.877587,24.1790283 19.9917571,26.2931984 C22.1060891,24.1790283 22.1060891,20.751336 19.9917571,18.637166" id="Fill-7" fill="#000000"></path><path d="M31.2143968,19.4033198 C31.2143968,20.9134413 29.9902672,22.1377328 28.4801457,22.1377328 C26.9700243,22.1377328 25.7457328,20.9134413 25.7457328,19.4033198 C25.7457328,17.8931984 26.9700243,16.6690688 28.4801457,16.6690688 C29.9902672,16.6690688 31.2143968,17.8931984 31.2143968,19.4033198" id="Fill-9" fill="#000000"></path><path d="M113.281069,13.6376518 L103.106008,13.6376518 C102.926899,13.6376518 102.782121,13.782753 102.782121,13.9615385 L102.782121,15.7202429 C102.782121,15.8991903 102.926899,16.0441296 103.106008,16.0441296 L109.439287,16.0441296 L101.889328,28.1822672 C101.755239,28.3979757 101.910381,28.6773279 102.164308,28.6773279 L113.238316,28.6773279 C113.417263,28.6773279 113.562202,28.5323887 113.562202,28.3534413 L113.562202,26.5861538 C113.562202,26.4073684 113.417263,26.2622672 113.238316,26.2622672 L106.064551,26.2622672 L113.556534,14.1317409 C113.689814,13.9158704 113.53451,13.6376518 113.281069,13.6376518" id="Fill-11" fill="#FF5036"></path><path d="M67.5819109,19.1128745 C67.7440162,17.2487449 69.770413,15.7896356 72.0938138,15.7896356 C74.2321134,15.7896356 76.3213441,16.7232389 76.6513846,19.1525506 C76.6777814,19.3459109 76.5244211,19.5182186 76.3292794,19.5182186 L74.3054737,19.5182186 C74.1632874,19.5182186 74.0329231,19.4268826 73.9958381,19.2897166 C73.7848259,18.5068826 72.9934089,18.1671255 72.20183,18.1671255 C71.4994818,18.1671255 70.6889555,18.4375709 70.418834,18.8699595 C70.2026397,19.2208907 70.1755951,19.6263968 70.3108178,20.0043725 C70.4729231,20.4910121 71.1751093,20.7880162 71.8507368,20.977004 L73.796,21.4636437 C76.5249069,22.1389474 77.0923563,23.8680162 77.0923563,25.1381377 C77.0923563,27.5693927 74.9577814,28.9475304 72.0667692,28.9475304 C69.8238543,28.9475304 67.5067692,27.59417 67.2526802,25.1695547 C67.2327611,24.9794332 67.3849879,24.8139271 67.5762429,24.8139271 L69.5286316,24.8139271 C69.6805344,24.8139271 69.8076599,24.9204858 69.8447449,25.0678543 C70.0797247,26.0072874 70.941587,26.6239676 72.2829636,26.6239676 C73.5527611,26.6239676 74.5255547,26.0563563 74.5255547,25.1109312 C74.5255547,24.3004049 73.6879838,23.8411336 72.7692794,23.6251012 L71.0670931,23.2195951 C68.3924372,22.4900405 67.4198057,21.1394332 67.5819109,19.1128745" id="Fill-13" fill="#FF5036"></path><path d="M88.6198219,21.3283725 C88.3497004,19.3559028 86.9176356,18.2213279 85.0266235,18.2213279 C83.0811984,18.2213279 81.5681619,19.3831093 81.2980405,21.3283725 L88.6198219,21.3283725 Z M91.0167449,23.3546073 L81.2980405,23.3546073 C81.5681619,25.2998704 83.1352874,26.5159028 85.1616842,26.5159028 C86.4698623,26.5159028 87.7545587,25.9536356 88.4488097,24.938251 C88.5382024,24.8074008 88.7064615,24.758332 88.8510769,24.8234332 C89.3887287,25.0660243 89.9838704,25.3196275 90.539498,25.5628664 C90.716664,25.6404372 90.788081,25.8559838 90.6902672,26.0231093 C89.5237895,28.0190607 87.2871903,28.9474818 85.0266235,28.9474818 C81.4331012,28.9474818 78.542251,26.326915 78.542251,22.3282105 C78.542251,18.3295061 81.4331012,15.789587 85.0266235,15.789587 C88.6198219,15.789587 91.3487287,18.3295061 91.3487287,22.3282105 C91.3487287,22.5282105 91.3487287,22.8017328 91.3404696,23.0414089 C91.3344777,23.2161457 91.1914818,23.3546073 91.0167449,23.3546073 L91.0167449,23.3546073 Z" id="Fill-15" fill="#FF5036"></path><path d="M124.700291,22.3244696 C124.700291,19.8425263 122.85349,18.2556437 120.602478,18.2556437 C118.380615,18.2556437 116.533652,19.8425263 116.533652,22.3244696 C116.533652,24.8639028 118.380615,26.5085992 120.602478,26.5085992 C122.85349,26.5085992 124.700291,24.8639028 124.700291,22.3244696 M114.038105,22.3281943 C114.038105,18.3294899 117.037134,15.7895709 120.603449,15.7895709 C124.196972,15.7895709 127.222883,18.3294899 127.222883,22.3281943 C127.222883,26.3268988 124.196972,28.9474656 120.603449,28.9474656 C117.037134,28.9474656 114.038105,26.3268988 114.038105,22.3281943" id="Fill-17" fill="#FF5036"></path><path d="M139.179028,22.3244696 C139.179028,19.8425263 137.332227,18.2556437 135.081377,18.2556437 C132.859352,18.2556437 131.012389,19.8425263 131.012389,22.3244696 C131.012389,24.8639028 132.859352,26.5085992 135.081377,26.5085992 C137.332227,26.5085992 139.179028,24.8639028 139.179028,22.3244696 M128.516842,22.3281943 C128.516842,18.3294899 131.51587,15.7895709 135.082186,15.7895709 C138.675709,15.7895709 141.701619,18.3294899 141.701619,22.3281943 C141.701619,26.3268988 138.675709,28.9474656 135.082186,28.9474656 C131.51587,28.9474656 128.516842,26.3268988 128.516842,22.3281943" id="Fill-19" fill="#FF5036"></path><path d="M157.352907,15.7900405 C155.678737,15.8117409 154.181085,16.5610526 153.158575,17.7351417 C152.136065,16.5610526 150.638413,15.8117409 148.964243,15.7900405 C145.810559,15.7492308 143.229506,18.4007287 143.229506,21.5547368 L143.229506,28.3534413 C143.229506,28.5323887 143.374607,28.6773279 143.553393,28.6773279 L145.688453,28.6773279 C145.867239,28.6773279 146.01234,28.5323887 146.01234,28.3534413 L146.01234,21.5252632 C146.01234,19.9124696 147.332178,18.542753 148.944648,18.5728745 C150.508372,18.6021862 151.767158,19.8791093 151.767158,21.4497976 L151.767158,28.3534413 C151.767158,28.5323887 151.912097,28.6773279 152.091045,28.6773279 L154.226105,28.6773279 C154.405053,28.6773279 154.549992,28.5323887 154.549992,28.3534413 L154.549992,21.5252632 C154.549992,19.9124696 155.86983,18.542753 157.482462,18.5728745 C159.046186,18.6021862 160.304972,19.8791093 160.304972,21.4497976 L160.304972,28.3534413 C160.304972,28.5323887 160.449911,28.6773279 160.628858,28.6773279 L162.763757,28.6773279 C162.942704,28.6773279 163.087644,28.5323887 163.087644,28.3534413 L163.087644,21.5547368 C163.087644,18.4007287 160.506753,15.7492308 157.352907,15.7900405" id="Fill-21" fill="#FF5036"></path><path d="M100.810964,15.7962915 C99.226834,15.7242267 97.4647287,16.2116761 96.4310445,18.1274656 L96.4310445,16.3838219 C96.4310445,16.2050364 96.2861053,16.0599352 96.1071579,16.0599352 L93.9720972,16.0599352 C93.7931498,16.0599352 93.6482105,16.2050364 93.6482105,16.3838219 L93.6482105,28.3533765 C93.6482105,28.5323239 93.7931498,28.6772632 93.9720972,28.6772632 L96.1071579,28.6772632 C96.2861053,28.6772632 96.4310445,28.5323239 96.4310445,28.3533765 L96.4310445,24.1383158 L96.4310445,23.7224453 C96.4310445,19.8502186 98.5458623,18.2644696 100.81064,18.1726478 C100.983595,18.1656842 101.119951,18.023336 101.119951,17.8502186 L101.119951,16.120664 C101.119951,15.9475466 100.983919,15.8042267 100.810964,15.7962915" id="Fill-23" fill="#FF5036"></path><path d="M62.8020405,13.6376518 L64.9618785,13.6376518 C65.140664,13.6376518 65.2857652,13.782753 65.2857652,13.9615385 L65.2857652,22.7241296 C65.2857652,26.3270445 62.8289231,28.9474494 58.9685182,28.9474494 C55.1079514,28.9474494 52.6512713,26.3270445 52.6512713,22.7241296 L52.6512713,13.9615385 C52.6512713,13.782753 52.7963725,13.6376518 52.9751579,13.6376518 L55.134996,13.6376518 C55.3139433,13.6376518 55.4588826,13.782753 55.4588826,13.9615385 L55.4588826,22.7147368 C55.4588826,24.6462348 56.9955628,26.2645344 58.9267368,26.2802429 C61.2703806,26.2991903 62.4781538,24.7268826 62.4781538,22.3731984 L62.4781538,13.9615385 C62.4781538,13.782753 62.6230931,13.6376518 62.8020405,13.6376518" id="Fill-25" fill="#FF5036"></path></g></g></svg>